<svg xmlns="http://www.w3.org/2000/svg" xmlns:xlink="http://www.w3.org/1999/xlink" width="500" zoomAndPan="magnify" viewBox="0 0 375 374.999991" height="500" preserveAspectRatio="xMidYMid meet" version="1.0"><defs><g/><clipPath id="b67d41c9b0"><path d="M 101 343 L 274 343 L 274 365.28125 L 101 365.28125 Z M 101 343 " clip-rule="nonzero"/></clipPath><clipPath id="a799c7b2d7"><path d="M 9.03125 9.03125 L 365.28125 9.03125 L 365.28125 188 L 9.03125 188 Z M 9.03125 9.03125 " clip-rule="nonzero"/></clipPath><clipPath id="e15248ba7b"><path d="M 187.183594 9.03125 C 88.773438 9.03125 9.03125 88.773438 9.03125 187.183594 L 365.339844 187.183594 C 365.339844 88.773438 285.597656 9.03125 187.183594 9.03125 Z M 187.183594 9.03125 " clip-rule="evenodd"/></clipPath><linearGradient x1="249.415265" gradientTransform="matrix(0.712617, 0, 0, 0.712617, 9.030104, 9.03009)" y1="260.777651" x2="261.129764" gradientUnits="userSpaceOnUse" y2="-10.318403" id="ea27755252"><stop stop-opacity="1" stop-color="rgb(95.783997%, 67.796326%, 11.94458%)" offset="0"/><stop stop-opacity="1" stop-color="rgb(95.758057%, 67.611694%, 11.956787%)" offset="0.015625"/><stop stop-opacity="1" stop-color="rgb(95.706177%, 67.242432%, 11.982727%)" offset="0.03125"/><stop stop-opacity="1" stop-color="rgb(95.652771%, 66.873169%, 12.008667%)" offset="0.046875"/><stop stop-opacity="1" stop-color="rgb(95.600891%, 66.503906%, 12.033081%)" offset="0.0625"/><stop stop-opacity="1" stop-color="rgb(95.549011%, 66.134644%, 12.059021%)" offset="0.078125"/><stop stop-opacity="1" stop-color="rgb(95.497131%, 65.765381%, 12.084961%)" offset="0.0795364"/><stop stop-opacity="1" stop-color="rgb(95.471191%, 65.582275%, 12.098694%)" offset="0.09375"/><stop stop-opacity="1" stop-color="rgb(95.445251%, 65.397644%, 12.110901%)" offset="0.109375"/><stop stop-opacity="1" stop-color="rgb(95.393372%, 65.028381%, 12.135315%)" offset="0.125"/><stop stop-opacity="1" stop-color="rgb(95.341492%, 64.659119%, 12.161255%)" offset="0.140625"/><stop stop-opacity="1" stop-color="rgb(95.288086%, 64.289856%, 12.187195%)" offset="0.15625"/><stop stop-opacity="1" stop-color="rgb(95.236206%, 63.920593%, 12.211609%)" offset="0.171875"/><stop stop-opacity="1" stop-color="rgb(95.184326%, 63.551331%, 12.237549%)" offset="0.1875"/><stop stop-opacity="1" stop-color="rgb(95.132446%, 63.182068%, 12.263489%)" offset="0.203125"/><stop stop-opacity="1" stop-color="rgb(95.080566%, 62.812805%, 12.289429%)" offset="0.21875"/><stop stop-opacity="1" stop-color="rgb(95.028687%, 62.443542%, 12.313843%)" offset="0.234375"/><stop stop-opacity="1" stop-color="rgb(94.976807%, 62.075806%, 12.339783%)" offset="0.25"/><stop stop-opacity="1" stop-color="rgb(94.923401%, 61.706543%, 12.365723%)" offset="0.265625"/><stop stop-opacity="1" stop-color="rgb(94.871521%, 61.33728%, 12.390137%)" offset="0.28125"/><stop stop-opacity="1" stop-color="rgb(94.819641%, 60.968018%, 12.416077%)" offset="0.296875"/><stop stop-opacity="1" stop-color="rgb(94.767761%, 60.598755%, 12.442017%)" offset="0.3125"/><stop stop-opacity="1" stop-color="rgb(94.715881%, 60.229492%, 12.466431%)" offset="0.328125"/><stop stop-opacity="1" stop-color="rgb(94.664001%, 59.860229%, 12.492371%)" offset="0.34375"/><stop stop-opacity="1" stop-color="rgb(94.612122%, 59.490967%, 12.518311%)" offset="0.359375"/><stop stop-opacity="1" stop-color="rgb(94.558716%, 59.121704%, 12.54425%)" offset="0.375"/><stop stop-opacity="1" stop-color="rgb(94.506836%, 58.753967%, 12.568665%)" offset="0.390625"/><stop stop-opacity="1" stop-color="rgb(94.454956%, 58.384705%, 12.594604%)" offset="0.40625"/><stop stop-opacity="1" stop-color="rgb(94.403076%, 58.015442%, 12.620544%)" offset="0.421875"/><stop stop-opacity="1" stop-color="rgb(94.351196%, 57.646179%, 12.644958%)" offset="0.4375"/><stop stop-opacity="1" stop-color="rgb(94.299316%, 57.276917%, 12.670898%)" offset="0.453125"/><stop stop-opacity="1" stop-color="rgb(94.247437%, 56.907654%, 12.696838%)" offset="0.46875"/><stop stop-opacity="1" stop-color="rgb(94.195557%, 56.538391%, 12.722778%)" offset="0.484375"/><stop stop-opacity="1" stop-color="rgb(94.142151%, 56.169128%, 12.747192%)" offset="0.5"/><stop stop-opacity="1" stop-color="rgb(94.090271%, 55.799866%, 12.773132%)" offset="0.515625"/><stop stop-opacity="1" stop-color="rgb(94.038391%, 55.432129%, 12.799072%)" offset="0.53125"/><stop stop-opacity="1" stop-color="rgb(93.986511%, 55.062866%, 12.823486%)" offset="0.546875"/><stop stop-opacity="1" stop-color="rgb(93.934631%, 54.693604%, 12.849426%)" offset="0.5625"/><stop stop-opacity="1" stop-color="rgb(93.882751%, 54.324341%, 12.875366%)" offset="0.578125"/><stop stop-opacity="1" stop-color="rgb(93.830872%, 53.955078%, 12.89978%)" offset="0.59375"/><stop stop-opacity="1" stop-color="rgb(93.777466%, 53.585815%, 12.92572%)" offset="0.609375"/><stop stop-opacity="1" stop-color="rgb(93.725586%, 53.216553%, 12.95166%)" offset="0.625"/><stop stop-opacity="1" stop-color="rgb(93.673706%, 52.84729%, 12.9776%)" offset="0.640625"/><stop stop-opacity="1" stop-color="rgb(93.621826%, 52.478027%, 13.002014%)" offset="0.65625"/><stop stop-opacity="1" stop-color="rgb(93.569946%, 52.110291%, 13.027954%)" offset="0.671875"/><stop stop-opacity="1" stop-color="rgb(93.518066%, 51.741028%, 13.053894%)" offset="0.6875"/><stop stop-opacity="1" stop-color="rgb(93.466187%, 51.371765%, 13.078308%)" offset="0.703125"/><stop stop-opacity="1" stop-color="rgb(93.412781%, 51.002502%, 13.104248%)" offset="0.71875"/><stop stop-opacity="1" stop-color="rgb(93.360901%, 50.63324%, 13.130188%)" offset="0.734375"/><stop stop-opacity="1" stop-color="rgb(93.309021%, 50.263977%, 13.156128%)" offset="0.75"/><stop stop-opacity="1" stop-color="rgb(93.257141%, 49.894714%, 13.180542%)" offset="0.765625"/><stop stop-opacity="1" stop-color="rgb(93.205261%, 49.525452%, 13.206482%)" offset="0.78125"/><stop stop-opacity="1" stop-color="rgb(93.153381%, 49.156189%, 13.232422%)" offset="0.796875"/><stop stop-opacity="1" stop-color="rgb(93.101501%, 48.788452%, 13.256836%)" offset="0.8125"/><stop stop-opacity="1" stop-color="rgb(93.048096%, 48.419189%, 13.282776%)" offset="0.828125"/><stop stop-opacity="1" stop-color="rgb(92.996216%, 48.049927%, 13.308716%)" offset="0.84375"/><stop stop-opacity="1" stop-color="rgb(92.944336%, 47.680664%, 13.334656%)" offset="0.859375"/><stop stop-opacity="1" stop-color="rgb(92.892456%, 47.311401%, 13.35907%)" offset="0.875"/><stop stop-opacity="1" stop-color="rgb(92.840576%, 46.942139%, 13.38501%)" offset="0.890625"/><stop stop-opacity="1" stop-color="rgb(92.788696%, 46.572876%, 13.41095%)" offset="0.90625"/><stop stop-opacity="1" stop-color="rgb(92.736816%, 46.203613%, 13.435364%)" offset="0.920464"/><stop stop-opacity="1" stop-color="rgb(92.710876%, 46.018982%, 13.449097%)" offset="0.921875"/><stop stop-opacity="1" stop-color="rgb(92.683411%, 45.834351%, 13.461304%)" offset="0.9375"/><stop stop-opacity="1" stop-color="rgb(92.631531%, 45.466614%, 13.487244%)" offset="0.953125"/><stop stop-opacity="1" stop-color="rgb(92.579651%, 45.097351%, 13.511658%)" offset="0.96875"/><stop stop-opacity="1" stop-color="rgb(92.527771%, 44.728088%, 13.537598%)" offset="0.984375"/><stop stop-opacity="1" stop-color="rgb(92.475891%, 44.358826%, 13.563538%)" offset="1"/></linearGradient><clipPath id="8f99841dca"><path d="M 94.429688 187.292969 L 281.179688 187.292969 L 281.179688 300.90625 L 94.429688 300.90625 Z M 94.429688 187.292969 " clip-rule="nonzero"/></clipPath></defs><path fill="#2694c4" d="M 14.800781 231.507812 L 359.566406 231.507812 C 361.417969 224.3125 362.84375 216.972656 363.84375 209.417969 L 10.597656 209.417969 C 11.523438 216.972656 12.949219 224.3125 14.800781 231.507812 Z M 14.800781 231.507812 " fill-opacity="1" fill-rule="evenodd"/><path fill="#2694c4" d="M 32.902344 276.046875 L 341.394531 276.046875 C 345.457031 268.992188 349.164062 261.652344 352.226562 253.957031 L 22.070312 253.957031 C 25.207031 261.652344 28.839844 268.992188 32.902344 276.046875 Z M 32.902344 276.046875 " fill-opacity="1" fill-rule="evenodd"/><path fill="#040606" d="M 69.390625 320.585938 L 304.980469 320.585938 C 312.605469 313.816406 319.730469 306.476562 326.144531 298.496094 L 48.222656 298.496094 C 54.636719 306.476562 61.765625 313.816406 69.390625 320.585938 Z M 69.390625 320.585938 " fill-opacity="1" fill-rule="evenodd"/><g clip-path="url(#b67d41c9b0)"><path fill="#040606" d="M 183.121094 365.125 C 184.476562 365.125 185.832031 365.339844 187.183594 365.339844 C 188.539062 365.339844 189.890625 365.195312 191.246094 365.125 C 220.960938 364.484375 248.898438 356.574219 273.339844 343.035156 L 101.027344 343.035156 C 125.402344 356.574219 153.335938 364.484375 183.121094 365.125 Z M 183.121094 365.125 " fill-opacity="1" fill-rule="evenodd"/></g><g clip-path="url(#a799c7b2d7)"><g clip-path="url(#e15248ba7b)"><path fill="url(#ea27755252)" d="M 9.03125 9.03125 L 9.03125 187.183594 L 365.28125 187.183594 L 365.28125 9.03125 Z M 9.03125 9.03125 " fill-rule="nonzero"/></g></g><g clip-path="url(#8f99841dca)"><path fill="#040606" d="M 255.25 187.921875 L 250.625 214.183594 C 249.976562 217.878906 246.480469 224.867188 237.875 224.867188 L 137.285156 224.867188 C 133.523438 224.867188 126.03125 222.648438 124.503906 214.203125 L 119.8125 187.972656 L 94.496094 190.804688 L 94.496094 206.734375 L 107.757812 206.734375 L 107.757812 217.25 L 103.960938 217.25 C 103.960938 217.25 94.429688 216.652344 94.429688 226.175781 L 94.429688 291.964844 C 94.429688 291.964844 94.429688 300.890625 103.960938 300.890625 L 116.792969 300.890625 C 116.792969 300.890625 126.328125 301.488281 126.328125 291.964844 L 126.328125 266.597656 L 192.925781 266.597656 C 192.925781 266.597656 198.582031 271.863281 205.195312 272.125 C 215.523438 272.523438 220.414062 264.410156 220.414062 264.410156 L 249.230469 271.597656 L 249.230469 291.964844 C 249.230469 291.964844 250.625 300.890625 260.15625 300.890625 L 271.597656 300.890625 C 271.597656 300.890625 281.128906 301.488281 281.128906 291.964844 L 281.128906 226.175781 C 281.128906 226.175781 281.128906 217.25 271.597656 217.25 L 267.816406 217.25 L 267.949219 206.734375 L 281.179688 206.734375 L 281.179688 190.804688 L 255.25 187.921875 " fill-opacity="1" fill-rule="nonzero"/></g><path fill="#040606" d="M 214.597656 213.671875 L 207.75 213.671875 L 207.75 184.726562 L 214.597656 184.726562 Z M 202.792969 213.671875 L 195.945312 213.671875 L 195.945312 184.726562 L 202.792969 184.726562 Z M 190.972656 213.671875 L 184.140625 213.671875 L 184.140625 184.726562 L 190.972656 184.726562 Z M 179.234375 213.671875 L 172.386719 213.671875 L 172.386719 184.726562 L 179.234375 184.726562 Z M 167.429688 213.671875 L 160.582031 213.671875 L 160.582031 184.726562 L 167.429688 184.726562 Z M 230.363281 202.429688 C 225.140625 202.429688 220.929688 198.207031 220.929688 193.003906 C 220.929688 187.804688 225.140625 183.582031 230.363281 183.582031 C 235.570312 183.582031 239.78125 187.804688 239.78125 193.003906 C 239.78125 198.207031 235.570312 202.429688 230.363281 202.429688 Z M 144.367188 202.429688 C 139.160156 202.429688 134.949219 198.207031 134.949219 193.003906 C 134.949219 187.804688 139.160156 183.582031 144.367188 183.582031 C 149.574219 183.582031 153.800781 187.804688 153.800781 193.003906 C 153.800781 198.207031 149.574219 202.429688 144.367188 202.429688 Z M 131.847656 143.921875 C 131.847656 141.539062 133.789062 139.601562 136.175781 139.601562 L 239.765625 139.601562 C 242.136719 139.601562 244.089844 141.539062 244.089844 143.921875 L 244.089844 171.214844 L 236.5625 171.214844 C 235.1875 163.230469 228.226562 157.136719 219.835938 157.136719 C 211.480469 157.136719 204.5 163.230469 203.125 171.214844 L 176.050781 171.214844 L 176.050781 164.820312 C 176.050781 164.820312 176.050781 161.660156 172.882812 161.660156 L 151.261719 161.660156 C 151.261719 161.660156 148.082031 161.660156 148.082031 164.820312 L 148.082031 171.214844 L 131.867188 171.214844 Z M 211.296875 171.230469 C 212.492188 167.652344 215.875 165.070312 219.835938 165.070312 C 223.816406 165.070312 227.195312 167.652344 228.40625 171.230469 Z M 263.457031 181.148438 L 263.472656 161.660156 L 251.535156 161.660156 L 251.535156 143.921875 C 251.535156 137.433594 246.261719 132.164062 239.765625 132.164062 L 136.175781 132.164062 C 129.695312 132.164062 124.40625 137.433594 124.40625 143.921875 L 124.40625 161.640625 L 112.847656 161.609375 L 112.816406 181.25 L 123.394531 181.28125 C 123.34375 182.359375 128.832031 212.644531 128.832031 212.644531 C 130.257812 220.625 138.132812 220.710938 138.480469 220.710938 L 236.695312 220.710938 C 244.804688 220.710938 246.261719 212.976562 246.3125 212.644531 C 246.3125 212.644531 251.800781 181.84375 251.800781 181.148438 L 263.457031 181.148438 " fill-opacity="1" fill-rule="nonzero"/><g fill="#000000" fill-opacity="1"><g transform="translate(101.343587, 137.323443)"><g><path d="M 3.824219 -37.457031 C 1.636719 -37.878906 0.4375 -37.957031 -1.5 -38.066406 L -1.8125 -39.878906 C -1.921875 -40.925781 -3.078125 -41.347656 -3.898438 -40.695312 L -6.929688 -38.285156 C -7.773438 -38.4375 -9.359375 -38.621094 -9.75 -38.722656 C -13.351562 -39.363281 -15.917969 -41.035156 -17.507812 -43.6875 C -19.878906 -47.574219 -16.578125 -51.332031 -12.402344 -49.1875 L -10.464844 -48.046875 C -9.660156 -47.554688 -8.902344 -47.640625 -8.144531 -48.242188 C -6.628906 -49.445312 -5.238281 -51.066406 -3.984375 -52.988281 C -3.554688 -53.746094 -3.539062 -54.375 -4.269531 -55.03125 C -9.117188 -59.835938 -18.203125 -62.710938 -25.628906 -52.996094 C -28.867188 -48.773438 -29.152344 -42.777344 -25.617188 -37.550781 C -22.570312 -33.070312 -18.117188 -30.320312 -12.476562 -29.445312 L -9.304688 -29.082031 L -8.910156 -26.511719 C -8.734375 -25.515625 -7.527344 -25.03125 -6.757812 -25.75 L -3.347656 -28.457031 L -2.328125 -28.34375 C 3.617188 -27.605469 5.394531 -28.089844 8.292969 -24.3125 C 9.648438 -22.609375 9.691406 -19.960938 8.476562 -18.378906 C 7.199219 -16.746094 5.382812 -16.4375 2.96875 -17.402344 C 2.148438 -17.78125 1.722656 -18.0625 0.929688 -18.667969 C 0.515625 -19.058594 0.1875 -19.210938 0.0898438 -19.339844 C -1.34375 -20.363281 -2.089844 -20.390625 -3.300781 -19.324219 C -3.996094 -18.773438 -5.296875 -17.429688 -7.132812 -15.457031 C -8.308594 -14.214844 -6.863281 -12.785156 -5.984375 -11.9375 C -4.011719 -10.105469 -1.371094 -8.597656 2.003906 -7.464844 C 3.109375 -7.109375 4.484375 -7.066406 6.109375 -7.222656 C 8.730469 -7.554688 11.214844 -8.707031 13.515625 -10.742188 C 17.609375 -14.40625 19.160156 -14.917969 19.34375 -20.523438 C 19.425781 -23.269531 18.855469 -25.804688 17.503906 -28.027344 C 14.46875 -33.136719 9.957031 -36.351562 3.824219 -37.457031 Z M 3.824219 -37.457031 "/></g></g></g><g fill="#000000" fill-opacity="1"><g transform="translate(124.61719, 118.063827)"><g><path d="M 20.875 -30.226562 C 20.425781 -31.261719 19.574219 -31.597656 18.507812 -31.21875 C 16.773438 -30.550781 15.074219 -29.808594 13.554688 -29.058594 C 12 -28.378906 11.855469 -27.703125 12.417969 -26.011719 L 14.191406 -21.941406 C 15.3125 -19.175781 14.324219 -16.191406 11.96875 -15.339844 C 9.609375 -14.488281 7.597656 -16.074219 6.570312 -17.828125 C 6.035156 -18.648438 5.617188 -19.609375 5.164062 -20.644531 C 2.574219 -26.382812 -0.519531 -33.480469 -4.1875 -42.089844 C -4.992188 -43.9375 -5.882812 -45.574219 -5.113281 -47.847656 C -4.730469 -48.980469 -4.035156 -49.8125 -3 -50.265625 C -0.929688 -51.167969 1.757812 -50.050781 3.128906 -47.304688 C 5.234375 -42.679688 4.996094 -42.222656 7.128906 -42.976562 C 8.714844 -43.582031 10.195312 -44.226562 11.714844 -44.976562 C 13.488281 -45.75 13.8125 -46.421875 13.113281 -48.226562 C 12.21875 -50.476562 10.074219 -56.40625 6.695312 -58.101562 C 2.996094 -59.921875 0.109375 -60.6875 -1.953125 -60.578125 C -2.640625 -60.542969 -3.414062 -60.292969 -4.113281 -60.078125 C -5.074219 -59.65625 -6.65625 -59.054688 -8.769531 -58.046875 C -9.507812 -57.722656 -10.257812 -57.21875 -11.058594 -56.429688 C -15.089844 -52.558594 -16.066406 -46.324219 -13.953125 -41.878906 C -12.933594 -39.949219 -11.320312 -36.25 -8.816406 -30.300781 L -11.03125 -27.3125 C -11.273438 -26.855469 -11.367188 -26.460938 -11.140625 -25.945312 C -10.945312 -25.5 -10.59375 -25.300781 -10.097656 -25.167969 L -6.398438 -24.757812 L -1.109375 -12.628906 C -0.0429688 -10.191406 1.238281 -8.460938 2.960938 -7.539062 C 15.089844 -0.507812 26.890625 -10.585938 24.371094 -21.808594 C 24.023438 -23.414062 22.902344 -26.183594 20.875 -30.226562 Z M 20.875 -30.226562 "/></g></g></g><g fill="#000000" fill-opacity="1"><g transform="translate(152.235554, 105.058697)"><g><path d="M 30.6875 -33.855469 L 27.238281 -35.253906 L 25.777344 -45.882812 C 25.195312 -50.121094 23.53125 -54.53125 19.746094 -57.1875 C 15.953125 -59.921875 11.835938 -60.253906 5.652344 -58.425781 C 4.636719 -58.125 3.8125 -57.605469 2.953125 -56.753906 C -1.222656 -52.761719 -2.910156 -48.457031 -2.105469 -43.761719 C -1.796875 -41.527344 -1.132812 -37.300781 -0.414062 -31.457031 L -3.355469 -29.179688 C -3.792969 -28.792969 -3.910156 -28.453125 -3.832031 -27.890625 C -3.765625 -27.414062 -3.5625 -27.113281 -3.039062 -26.859375 L 0.410156 -25.460938 L 2.011719 -13.792969 C 2.363281 -11.234375 3.050781 -9.214844 4.25 -7.585938 C 10.683594 1.300781 24.039062 0.117188 28.957031 -10.898438 C 29.257812 -11.671875 29.488281 -12.355469 29.46875 -13.085938 C 29.660156 -16.453125 29.613281 -18.5625 29.492188 -19.441406 L 28.0625 -29.261719 L 31.007812 -31.539062 C 31.441406 -31.921875 31.558594 -32.265625 31.492188 -32.746094 C 31.414062 -33.304688 31.199219 -33.683594 30.6875 -33.855469 Z M 19.394531 -14.714844 C 18.394531 -11.320312 13.75 -10.765625 12.019531 -13.867188 C 11.613281 -14.460938 11.367188 -15.648438 11.148438 -17.246094 L 7.566406 -43.300781 C 7.390625 -44.578125 7.28125 -45.378906 7.296875 -45.871094 C 7.296875 -50.023438 13.144531 -51.3125 14.960938 -47.574219 C 15.308594 -46.808594 15.589844 -45.949219 15.746094 -44.832031 L 19.457031 -17.820312 C 19.632812 -16.539062 19.613281 -15.480469 19.394531 -14.714844 Z M 19.394531 -14.714844 "/></g></g></g><g fill="#000000" fill-opacity="1"><g transform="translate(185.552765, 99.765303)"><g><path d="M 39.015625 -23.78125 L 36.105469 -26.101562 L 37.714844 -36.710938 C 38.355469 -40.9375 38.007812 -45.640625 35.128906 -49.257812 C 32.261719 -52.957031 28.410156 -54.4375 21.960938 -54.4375 C 20.902344 -54.433594 19.964844 -54.167969 18.898438 -53.597656 C 13.761719 -50.949219 10.925781 -47.296875 10.371094 -42.570312 C 10.03125 -40.335938 9.472656 -36.097656 8.507812 -30.285156 L 5.039062 -28.933594 C 4.511719 -28.6875 4.304688 -28.394531 4.222656 -27.835938 C 4.148438 -27.355469 4.257812 -27.015625 4.691406 -26.621094 L 7.601562 -24.304688 L 5.835938 -12.660156 C 5.449219 -10.105469 5.535156 -7.972656 6.222656 -6.074219 C 9.878906 4.273438 23.019531 6.917969 30.859375 -2.257812 C 31.367188 -2.914062 31.78125 -3.503906 31.96875 -4.207031 C 33.105469 -7.382812 33.65625 -9.417969 33.789062 -10.296875 L 35.199219 -20.121094 L 38.667969 -21.46875 C 39.195312 -21.714844 39.402344 -22.011719 39.472656 -22.488281 C 39.558594 -23.046875 39.460938 -23.472656 39.015625 -23.78125 Z M 22.765625 -8.625 C 20.847656 -5.652344 16.234375 -6.433594 15.453125 -9.894531 C 15.230469 -10.582031 15.332031 -11.789062 15.574219 -13.386719 L 19.515625 -39.386719 C 19.710938 -40.664062 19.832031 -41.460938 19.984375 -41.925781 C 21.160156 -45.910156 27.132812 -45.492188 27.816406 -41.390625 C 27.933594 -40.558594 27.960938 -39.65625 27.792969 -38.539062 L 23.703125 -11.582031 C 23.511719 -10.304688 23.195312 -9.292969 22.765625 -8.625 Z M 22.765625 -8.625 "/></g></g></g><g fill="#000000" fill-opacity="1"><g transform="translate(219.355224, 104.657159)"><g><path d="M 46.894531 -40.953125 L 29.203125 -48.816406 C 27.507812 -49.570312 26.6875 -50.109375 25.867188 -49.855469 C 25.546875 -49.734375 25.128906 -49.390625 24.867188 -48.800781 C 24.042969 -47.136719 23.289062 -45.441406 22.671875 -43.859375 C 22.089844 -42.355469 22.445312 -41.757812 23.886719 -41.027344 C 24.148438 -40.824219 24.738281 -40.558594 25.546875 -40.199219 C 27.023438 -39.542969 28.496094 -38.890625 28.875 -37.75 C 29.210938 -36.71875 28.785156 -35.761719 27.667969 -33.253906 L 23.507812 -23.890625 L 19.265625 -23.484375 C 18.765625 -23.351562 18.488281 -23.121094 18.289062 -22.679688 C 18.0625 -22.164062 18.042969 -21.730469 18.316406 -21.34375 L 20.855469 -17.921875 L 12.566406 0.730469 C 11.582031 2.941406 10.5 4.578125 12.382812 5.503906 C 14.121094 6.363281 15.964844 7.183594 17.914062 7.960938 C 19.746094 8.601562 20.28125 6.808594 21.460938 4.152344 L 29.585938 -14.128906 L 33.648438 -14.53125 C 34.113281 -14.585938 34.5 -14.855469 34.730469 -15.375 C 34.925781 -15.816406 34.835938 -16.207031 34.597656 -16.667969 L 32.175781 -19.953125 L 36.039062 -28.652344 C 37.316406 -31.523438 37.800781 -32.8125 39.046875 -33.230469 C 40.324219 -33.71875 41.839844 -32.957031 43.3125 -32.304688 C 44.640625 -31.714844 45.671875 -31.253906 46.492188 -31.507812 C 46.84375 -31.707031 47.1875 -32.082031 47.484375 -32.746094 C 47.820312 -33.300781 48.308594 -34.410156 48.964844 -35.882812 C 50.503906 -39.347656 50.359375 -39.414062 46.894531 -40.953125 Z M 46.894531 -40.953125 "/></g></g></g><g fill="#000000" fill-opacity="1"><g transform="translate(246.113404, 115.888274)"><g><path d="M 37.351562 -4.734375 C 37.269531 -6.960938 37.078125 -8.144531 36.742188 -10.058594 L 38.441406 -10.769531 C 39.433594 -11.113281 39.582031 -12.335938 38.761719 -12.988281 L 35.730469 -15.398438 C 35.6875 -16.253906 35.507812 -17.839844 35.519531 -18.246094 C 35.332031 -21.898438 36.378906 -24.773438 38.601562 -26.921875 C 41.855469 -30.109375 46.261719 -27.742188 45.117188 -23.1875 L 44.441406 -21.046875 C 44.144531 -20.148438 44.398438 -19.433594 45.15625 -18.832031 C 46.671875 -17.625 48.5625 -16.636719 50.722656 -15.851562 C 51.554688 -15.601562 52.171875 -15.730469 52.644531 -16.585938 C 56.230469 -22.394531 56.980469 -31.894531 45.839844 -36.9375 C 40.996094 -39.136719 35.089844 -38.0625 30.796875 -33.4375 C 27.117188 -29.457031 25.445312 -24.5 25.867188 -18.804688 L 26.230469 -15.632812 L 23.8125 -14.667969 C 22.882812 -14.273438 22.6875 -12.988281 23.558594 -12.398438 L 26.96875 -9.6875 L 27.085938 -8.667969 C 27.707031 -2.710938 28.582031 -1.089844 25.558594 2.585938 C 24.203125 4.292969 21.636719 4.929688 19.816406 4.105469 C 17.9375 3.230469 17.226562 1.53125 17.621094 -1.039062 C 17.808594 -1.921875 17.984375 -2.402344 18.394531 -3.308594 C 18.683594 -3.800781 18.757812 -4.15625 18.859375 -4.28125 C 19.535156 -5.910156 19.394531 -6.640625 18.078125 -7.582031 C 17.386719 -8.132812 15.78125 -9.097656 13.445312 -10.4375 C 11.96875 -11.300781 10.90625 -9.574219 10.277344 -8.523438 C 8.9375 -6.191406 8.066406 -3.277344 7.722656 0.265625 C 7.625 1.425781 7.894531 2.769531 8.417969 4.320312 C 9.332031 6.796875 11.015625 8.960938 13.515625 10.742188 C 18.011719 13.902344 18.859375 15.296875 24.363281 14.207031 C 27.054688 13.667969 29.394531 12.539062 31.253906 10.71875 C 35.550781 6.613281 37.660156 1.492188 37.351562 -4.734375 Z M 37.351562 -4.734375 "/></g></g></g></svg>