<svg xmlns="http://www.w3.org/2000/svg" xmlns:xlink="http://www.w3.org/1999/xlink" width="500" zoomAndPan="magnify" viewBox="0 0 375 374.999991" height="500" preserveAspectRatio="xMidYMid meet" version="1.0"><defs><g/><clipPath id="8c3c62cc31"><path d="M 11.992188 11.992188 L 363.007812 11.992188 L 363.007812 363.007812 L 11.992188 363.007812 Z M 11.992188 11.992188 " clip-rule="nonzero"/></clipPath><clipPath id="2d20f35c22"><path d="M 187.5 11.992188 C 90.570312 11.992188 11.992188 90.570312 11.992188 187.5 C 11.992188 284.429688 90.570312 363.007812 187.5 363.007812 C 284.429688 363.007812 363.007812 284.429688 363.007812 187.5 C 363.007812 90.570312 284.429688 11.992188 187.5 11.992188 Z M 187.5 11.992188 " clip-rule="nonzero"/></clipPath><clipPath id="a97fd15204"><path d="M 15.0625 15.0625 L 359.9375 15.0625 L 359.9375 359.9375 L 15.0625 359.9375 Z M 15.0625 15.0625 " clip-rule="nonzero"/></clipPath><clipPath id="d5bd7f47a2"><path d="M 187.5 15.0625 C 92.265625 15.0625 15.0625 92.265625 15.0625 187.5 C 15.0625 282.734375 92.265625 359.9375 187.5 359.9375 C 282.734375 359.9375 359.9375 282.734375 359.9375 187.5 C 359.9375 92.265625 282.734375 15.0625 187.5 15.0625 Z M 187.5 15.0625 " clip-rule="nonzero"/></clipPath><clipPath id="293a3f4cab"><path d="M 27.699219 27.699219 L 347.300781 27.699219 L 347.300781 347.300781 L 27.699219 347.300781 Z M 27.699219 27.699219 " clip-rule="nonzero"/></clipPath><clipPath id="11e992b197"><path d="M 187.5 27.699219 C 99.246094 27.699219 27.699219 99.246094 27.699219 187.5 C 27.699219 275.753906 99.246094 347.300781 187.5 347.300781 C 275.753906 347.300781 347.300781 275.753906 347.300781 187.5 C 347.300781 99.246094 275.753906 27.699219 187.5 27.699219 Z M 187.5 27.699219 " clip-rule="nonzero"/></clipPath><clipPath id="fd2a67d147"><path d="M 90 288 L 199 288 L 199 313.71875 L 90 313.71875 Z M 90 288 " clip-rule="nonzero"/></clipPath><clipPath id="16d22fe67c"><path d="M 55.578125 274 L 205.574219 274 L 205.574219 306 L 55.578125 306 Z M 55.578125 274 " clip-rule="nonzero"/></clipPath><clipPath id="27be2708e7"><path d="M 56 266.46875 L 122 266.46875 L 122 295 L 56 295 Z M 56 266.46875 " clip-rule="nonzero"/></clipPath><clipPath id="9aa14da044"><path d="M 176 288 L 285 288 L 285 313.71875 L 176 313.71875 Z M 176 288 " clip-rule="nonzero"/></clipPath><clipPath id="df7e1a8e2a"><path d="M 169.421875 274 L 319.421875 274 L 319.421875 306 L 169.421875 306 Z M 169.421875 274 " clip-rule="nonzero"/></clipPath><clipPath id="86e3d7c512"><path d="M 253 266.46875 L 319 266.46875 L 319 295 L 253 295 Z M 253 266.46875 " clip-rule="nonzero"/></clipPath><clipPath id="c0674cdab4"><path d="M 179.851562 168.019531 L 204.941406 168.019531 L 204.941406 236.800781 L 179.851562 236.800781 Z M 179.851562 168.019531 " clip-rule="nonzero"/></clipPath><clipPath id="7cf0113af5"><path d="M 112.5 104.253906 L 262.496094 104.253906 L 262.496094 217.445312 L 112.5 217.445312 Z M 112.5 104.253906 " clip-rule="nonzero"/></clipPath></defs><g clip-path="url(#8c3c62cc31)"><g clip-path="url(#2d20f35c22)"><path fill="#000000" d="M 11.992188 11.992188 L 363.007812 11.992188 L 363.007812 363.007812 L 11.992188 363.007812 Z M 11.992188 11.992188 " fill-opacity="1" fill-rule="nonzero"/></g></g><g clip-path="url(#a97fd15204)"><g clip-path="url(#d5bd7f47a2)"><path fill="#0081c9" d="M 15.0625 15.0625 L 359.9375 15.0625 L 359.9375 359.9375 L 15.0625 359.9375 Z M 15.0625 15.0625 " fill-opacity="1" fill-rule="nonzero"/></g></g><g clip-path="url(#293a3f4cab)"><g clip-path="url(#11e992b197)"><path fill="#2b2df5" d="M 27.699219 27.699219 L 347.300781 27.699219 L 347.300781 347.300781 L 27.699219 347.300781 Z M 27.699219 27.699219 " fill-opacity="1" fill-rule="nonzero"/></g></g><g clip-path="url(#fd2a67d147)"><path fill="#89e0ff" d="M 198.226562 294.140625 C 195.542969 293.265625 192.390625 292.546875 188.890625 292.261719 C 187.683594 292.144531 186.4375 292.101562 185.160156 292.101562 C 179.78125 292.101562 173.886719 293.050781 167.621094 294.914062 C 165.398438 295.585938 163.535156 296.203125 161.785156 296.820312 C 159.992188 297.464844 158.113281 298.183594 155.816406 299.085938 C 151.660156 300.765625 147.371094 302.585938 143.742188 304.148438 L 143.296875 304.320312 C 139.484375 305.914062 135.539062 307.550781 131.722656 308.898438 C 129.816406 309.597656 127.851562 310.230469 125.902344 310.789062 C 123.777344 311.421875 121.941406 311.878906 120.234375 312.222656 C 116.738281 312.96875 113.292969 313.34375 110.007812 313.34375 C 106.527344 313.34375 103.226562 312.925781 100.1875 312.082031 C 96.414062 311.089844 93.101562 309.5 90.40625 307.863281 C 93.074219 308.726562 96.214844 309.457031 99.683594 309.730469 C 100.890625 309.84375 102.136719 309.902344 103.414062 309.902344 C 108.792969 309.902344 114.6875 308.9375 120.953125 307.074219 C 123.03125 306.445312 124.953125 305.8125 126.789062 305.167969 C 128.839844 304.421875 130.863281 303.632812 132.757812 302.902344 C 136.914062 301.222656 141.175781 299.402344 144.832031 297.839844 L 145.492188 297.550781 C 149.234375 296.003906 153.105469 294.398438 156.835938 293.078125 C 158.859375 292.347656 160.824219 291.699219 162.671875 291.171875 C 164.882812 290.523438 166.6875 290.082031 168.339844 289.734375 C 171.835938 288.992188 175.277344 288.617188 178.5625 288.617188 C 182.046875 288.617188 185.347656 289.046875 188.386719 289.878906 C 192.1875 290.882812 195.515625 292.488281 198.226562 294.140625 " fill-opacity="1" fill-rule="nonzero"/></g><g clip-path="url(#16d22fe67c)"><path fill="#3884c3" d="M 205.355469 291.9375 C 205.222656 291.867188 204.738281 291.523438 203.875 291.035156 C 202.902344 290.433594 201.453125 289.628906 199.632812 288.753906 C 195.960938 287.003906 190.726562 285.140625 184.429688 284.652344 C 178.148438 284.105469 170.820312 284.996094 162.960938 287.261719 C 160.996094 287.835938 159 288.453125 156.980469 289.140625 C 154.957031 289.84375 152.90625 290.605469 150.839844 291.390625 C 146.726562 292.984375 142.539062 294.707031 138.335938 296.441406 C 134.148438 298.117188 129.960938 299.8125 125.828125 301.21875 C 123.777344 301.933594 121.726562 302.578125 119.703125 303.136719 C 117.683594 303.710938 115.6875 304.214844 113.722656 304.585938 C 111.816406 304.972656 109.9375 305.277344 108.101562 305.460938 C 108.101562 305.460938 108.074219 305.460938 108.03125 305.476562 C 107.929688 305.492188 107.730469 305.503906 107.457031 305.535156 C 107.285156 305.546875 107.128906 305.5625 106.957031 305.578125 C 106.683594 305.605469 106.351562 305.621094 105.996094 305.632812 C 105.734375 305.648438 105.464844 305.664062 105.164062 305.664062 C 104.90625 305.675781 104.617188 305.675781 104.332031 305.675781 C 103.714844 305.691406 103.027344 305.691406 102.292969 305.664062 C 102.121094 305.664062 101.949219 305.648438 101.777344 305.648438 C 101.492188 305.632812 101.203125 305.621094 100.902344 305.605469 C 100.644531 305.589844 100.371094 305.578125 100.113281 305.5625 C 99.667969 305.519531 99.226562 305.492188 98.753906 305.433594 C 97.617188 305.332031 96.414062 305.175781 95.136719 304.945312 C 94.261719 304.800781 93.359375 304.628906 92.425781 304.414062 C 91.78125 304.269531 91.121094 304.113281 90.449219 303.925781 C 90.417969 303.925781 90.40625 303.925781 90.390625 303.914062 C 79.320312 300.972656 65.394531 293.429688 55.796875 274.65625 C 56.703125 276.046875 70.714844 297.058594 93.902344 299.367188 C 99.8125 299.652344 106.554688 298.734375 113.722656 296.671875 C 113.996094 296.585938 114.269531 296.511719 114.542969 296.425781 C 116.234375 295.925781 117.96875 295.378906 119.703125 294.777344 C 121.726562 294.074219 123.777344 293.3125 125.828125 292.539062 C 129.960938 290.933594 134.148438 289.210938 138.335938 287.476562 C 142.539062 285.800781 146.726562 284.09375 150.839844 282.699219 C 152.90625 281.96875 154.957031 281.324219 156.980469 280.765625 C 159 280.191406 160.996094 279.691406 162.960938 279.300781 C 170.820312 277.695312 178.148438 277.796875 184.429688 279.460938 C 190.726562 281.066406 195.960938 284.179688 199.632812 286.945312 C 201.453125 288.324219 202.902344 289.628906 203.875 290.519531 C 204.738281 291.304688 205.222656 291.808594 205.355469 291.9375 " fill-opacity="1" fill-rule="nonzero"/></g><g clip-path="url(#27be2708e7)"><path fill="#89e0ff" d="M 56.492188 266.472656 C 56.492188 266.472656 56.667969 266.710938 57 267.160156 C 57.324219 267.609375 57.8125 268.273438 58.449219 269.082031 C 59.703125 270.714844 61.578125 272.992188 64.039062 275.488281 C 65.25 276.75 66.671875 278.007812 68.160156 279.335938 C 69.691406 280.621094 71.355469 281.902344 73.125 283.152344 C 74.90625 284.394531 76.828125 285.535156 78.8125 286.636719 C 80.832031 287.726562 82.863281 288.644531 85.082031 289.46875 C 87.160156 290.253906 89.402344 290.851562 91.601562 291.285156 C 93.816406 291.679688 96.023438 291.945312 98.183594 292.050781 C 100.339844 292.105469 102.4375 292.101562 104.433594 291.960938 C 106.421875 291.816406 108.3125 291.617188 110.050781 291.375 C 113.527344 290.867188 116.429688 290.300781 118.457031 289.878906 C 120.492188 289.457031 121.652344 289.21875 121.652344 289.21875 C 121.652344 289.21875 121.378906 289.332031 120.863281 289.539062 C 120.34375 289.742188 119.597656 290.074219 118.617188 290.425781 C 116.667969 291.15625 113.851562 292.136719 110.363281 292.992188 C 108.617188 293.421875 106.703125 293.816406 104.652344 294.09375 C 102.601562 294.382812 100.410156 294.5625 98.132812 294.574219 C 95.855469 294.542969 93.484375 294.433594 91.113281 294.011719 C 88.738281 293.574219 86.382812 292.996094 84.019531 292.132812 C 81.816406 291.28125 79.535156 290.21875 77.476562 289.058594 C 75.390625 287.890625 73.457031 286.546875 71.640625 285.191406 C 68.035156 282.425781 65.058594 279.394531 62.8125 276.578125 C 60.535156 273.78125 58.976562 271.222656 57.96875 269.390625 C 57.445312 268.484375 57.113281 267.738281 56.867188 267.242188 C 56.621094 266.738281 56.492188 266.472656 56.492188 266.472656 " fill-opacity="1" fill-rule="nonzero"/></g><path fill="#3884c3" d="M 105.164062 305.664062 C 104.730469 305.675781 104.246094 305.691406 103.730469 305.691406 L 103.585938 305.691406 C 103.183594 305.691406 102.753906 305.675781 102.292969 305.664062 C 103.027344 305.691406 103.714844 305.691406 104.332031 305.675781 C 104.617188 305.675781 104.90625 305.675781 105.164062 305.664062 " fill-opacity="1" fill-rule="nonzero"/><path fill="#3884c3" d="M 104.332031 305.675781 C 104.128906 305.675781 103.929688 305.691406 103.730469 305.691406 L 103.585938 305.691406 C 99.554688 305.777344 95.726562 305.363281 92.242188 304.445312 C 91.636719 304.285156 91.035156 304.113281 90.449219 303.925781 C 91.121094 304.113281 91.78125 304.269531 92.425781 304.414062 C 93.359375 304.628906 94.261719 304.800781 95.136719 304.945312 C 96.414062 305.175781 97.617188 305.332031 98.753906 305.433594 C 99.210938 305.492188 99.667969 305.519531 100.113281 305.5625 C 100.371094 305.578125 100.644531 305.589844 100.902344 305.605469 C 101.203125 305.621094 101.492188 305.632812 101.777344 305.648438 C 101.949219 305.648438 102.121094 305.664062 102.292969 305.664062 C 103.027344 305.691406 103.714844 305.691406 104.332031 305.675781 " fill-opacity="1" fill-rule="nonzero"/><g clip-path="url(#9aa14da044)"><path fill="#89e0ff" d="M 176.773438 294.140625 C 179.457031 293.265625 182.609375 292.546875 186.109375 292.261719 C 187.316406 292.144531 188.5625 292.101562 189.839844 292.101562 C 195.21875 292.101562 201.113281 293.050781 207.378906 294.914062 C 209.601562 295.585938 211.464844 296.203125 213.214844 296.820312 C 215.007812 297.464844 216.886719 298.183594 219.183594 299.085938 C 223.339844 300.765625 227.628906 302.585938 231.257812 304.148438 L 231.703125 304.320312 C 235.515625 305.914062 239.460938 307.550781 243.277344 308.898438 C 245.183594 309.597656 247.148438 310.230469 249.097656 310.789062 C 251.222656 311.421875 253.058594 311.878906 254.765625 312.222656 C 258.261719 312.96875 261.707031 313.34375 264.988281 313.34375 C 268.472656 313.34375 271.773438 312.925781 274.8125 312.082031 C 278.585938 311.089844 281.898438 309.5 284.59375 307.863281 C 281.925781 308.726562 278.785156 309.457031 275.316406 309.730469 C 274.109375 309.84375 272.863281 309.902344 271.585938 309.902344 C 266.207031 309.902344 260.3125 308.9375 254.046875 307.074219 C 251.96875 306.445312 250.046875 305.8125 248.210938 305.167969 C 246.160156 304.421875 244.136719 303.632812 242.242188 302.902344 C 238.085938 301.222656 233.824219 299.402344 230.167969 297.839844 L 229.507812 297.550781 C 225.765625 296.003906 221.894531 294.398438 218.164062 293.078125 C 216.140625 292.347656 214.175781 291.699219 212.328125 291.171875 C 210.117188 290.523438 208.3125 290.082031 206.660156 289.734375 C 203.164062 288.992188 199.722656 288.617188 196.4375 288.617188 C 192.953125 288.617188 189.652344 289.046875 186.613281 289.878906 C 182.8125 290.882812 179.484375 292.488281 176.773438 294.140625 " fill-opacity="1" fill-rule="nonzero"/></g><g clip-path="url(#df7e1a8e2a)"><path fill="#3884c3" d="M 169.644531 291.9375 C 169.773438 291.867188 170.261719 291.523438 171.125 291.035156 C 172.097656 290.433594 173.546875 289.628906 175.367188 288.753906 C 179.039062 287.003906 184.273438 285.140625 190.570312 284.652344 C 196.851562 284.105469 204.179688 284.996094 212.039062 287.261719 C 214.003906 287.835938 216 288.453125 218.019531 289.140625 C 220.042969 289.84375 222.09375 290.605469 224.160156 291.390625 C 228.273438 292.984375 232.460938 294.707031 236.664062 296.441406 C 240.851562 298.117188 245.039062 299.8125 249.171875 301.21875 C 251.222656 301.933594 253.273438 302.578125 255.296875 303.136719 C 257.316406 303.710938 259.3125 304.214844 261.277344 304.585938 C 263.183594 304.972656 265.0625 305.277344 266.898438 305.460938 C 266.898438 305.460938 266.925781 305.460938 266.96875 305.476562 C 267.070312 305.492188 267.269531 305.503906 267.542969 305.535156 C 267.714844 305.546875 267.871094 305.5625 268.042969 305.578125 C 268.316406 305.605469 268.648438 305.621094 269.003906 305.632812 C 269.265625 305.648438 269.535156 305.664062 269.835938 305.664062 C 270.09375 305.675781 270.382812 305.675781 270.667969 305.675781 C 271.285156 305.691406 271.972656 305.691406 272.707031 305.664062 C 272.878906 305.664062 273.050781 305.648438 273.222656 305.648438 C 273.507812 305.632812 273.796875 305.621094 274.097656 305.605469 C 274.355469 305.589844 274.628906 305.578125 274.886719 305.5625 C 275.332031 305.519531 275.773438 305.492188 276.246094 305.433594 C 277.382812 305.332031 278.585938 305.175781 279.863281 304.945312 C 280.738281 304.800781 281.640625 304.628906 282.574219 304.414062 C 283.21875 304.269531 283.878906 304.113281 284.550781 303.925781 C 284.582031 303.925781 284.59375 303.925781 284.609375 303.914062 C 295.679688 300.972656 309.605469 293.429688 319.203125 274.65625 C 318.296875 276.046875 304.285156 297.058594 281.097656 299.367188 C 275.1875 299.652344 268.445312 298.734375 261.277344 296.671875 C 261.003906 296.585938 260.730469 296.511719 260.457031 296.425781 C 258.765625 295.925781 257.03125 295.378906 255.296875 294.777344 C 253.273438 294.074219 251.222656 293.3125 249.171875 292.539062 C 245.039062 290.933594 240.851562 289.210938 236.664062 287.476562 C 232.460938 285.800781 228.273438 284.09375 224.160156 282.699219 C 222.09375 281.96875 220.042969 281.324219 218.019531 280.765625 C 216 280.191406 214.003906 279.691406 212.039062 279.300781 C 204.179688 277.695312 196.851562 277.796875 190.570312 279.460938 C 184.273438 281.066406 179.039062 284.179688 175.367188 286.945312 C 173.546875 288.324219 172.097656 289.628906 171.125 290.519531 C 170.261719 291.304688 169.773438 291.808594 169.644531 291.9375 " fill-opacity="1" fill-rule="nonzero"/></g><g clip-path="url(#86e3d7c512)"><path fill="#89e0ff" d="M 318.507812 266.472656 C 318.507812 266.472656 318.332031 266.710938 318 267.160156 C 317.675781 267.609375 317.1875 268.273438 316.550781 269.082031 C 315.296875 270.714844 313.421875 272.992188 310.960938 275.488281 C 309.75 276.75 308.328125 278.007812 306.839844 279.335938 C 305.308594 280.621094 303.644531 281.902344 301.875 283.152344 C 300.09375 284.394531 298.171875 285.535156 296.1875 286.636719 C 294.167969 287.726562 292.136719 288.644531 289.917969 289.46875 C 287.839844 290.253906 285.597656 290.851562 283.398438 291.285156 C 281.183594 291.679688 278.976562 291.945312 276.816406 292.050781 C 274.660156 292.105469 272.5625 292.101562 270.566406 291.960938 C 268.578125 291.816406 266.6875 291.617188 264.949219 291.375 C 261.472656 290.867188 258.570312 290.300781 256.542969 289.878906 C 254.507812 289.457031 253.347656 289.21875 253.347656 289.21875 C 253.347656 289.21875 253.621094 289.332031 254.136719 289.539062 C 254.65625 289.742188 255.402344 290.074219 256.382812 290.425781 C 258.332031 291.15625 261.148438 292.136719 264.636719 292.992188 C 266.382812 293.421875 268.296875 293.816406 270.347656 294.09375 C 272.398438 294.382812 274.589844 294.5625 276.867188 294.574219 C 279.144531 294.542969 281.515625 294.433594 283.886719 294.011719 C 286.261719 293.574219 288.617188 292.996094 290.980469 292.132812 C 293.183594 291.28125 295.464844 290.21875 297.523438 289.058594 C 299.609375 287.890625 301.542969 286.546875 303.359375 285.191406 C 306.964844 282.425781 309.941406 279.394531 312.1875 276.578125 C 314.464844 273.78125 316.023438 271.222656 317.03125 269.390625 C 317.554688 268.484375 317.886719 267.738281 318.132812 267.242188 C 318.378906 266.738281 318.507812 266.472656 318.507812 266.472656 " fill-opacity="1" fill-rule="nonzero"/></g><path fill="#3884c3" d="M 269.835938 305.664062 C 270.269531 305.675781 270.753906 305.691406 271.269531 305.691406 L 271.414062 305.691406 C 271.816406 305.691406 272.246094 305.675781 272.707031 305.664062 C 271.972656 305.691406 271.285156 305.691406 270.667969 305.675781 C 270.382812 305.675781 270.09375 305.675781 269.835938 305.664062 " fill-opacity="1" fill-rule="nonzero"/><path fill="#3884c3" d="M 270.667969 305.675781 C 270.871094 305.675781 271.070312 305.691406 271.269531 305.691406 L 271.414062 305.691406 C 275.445312 305.777344 279.273438 305.363281 282.757812 304.445312 C 283.363281 304.285156 283.964844 304.113281 284.550781 303.925781 C 283.878906 304.113281 283.21875 304.269531 282.574219 304.414062 C 281.640625 304.628906 280.738281 304.800781 279.863281 304.945312 C 278.585938 305.175781 277.382812 305.332031 276.246094 305.433594 C 275.789062 305.492188 275.332031 305.519531 274.886719 305.5625 C 274.628906 305.578125 274.355469 305.589844 274.097656 305.605469 C 273.796875 305.621094 273.507812 305.632812 273.222656 305.648438 C 273.050781 305.648438 272.878906 305.664062 272.707031 305.664062 C 271.972656 305.691406 271.285156 305.691406 270.667969 305.675781 " fill-opacity="1" fill-rule="nonzero"/><path fill="#89e0ff" d="M 145.710938 145.652344 C 157.21875 157.140625 164.214844 173.03125 164.917969 189.277344 C 165.625 205.523438 160.03125 221.960938 149.5625 234.40625 C 161.746094 231.558594 172.183594 221.929688 176.148438 210.058594 C 180.117188 198.191406 178.46875 184.828125 172.910156 173.613281 C 167.355469 162.402344 157.632812 151.882812 145.710938 145.652344 " fill-opacity="1" fill-rule="nonzero"/><g clip-path="url(#c0674cdab4)"><path fill="#89e0ff" d="M 183.015625 236.742188 C 198.613281 221.523438 191.835938 182.902344 179.867188 168.132812 C 218.871094 195.703125 206.1875 238.613281 183.015625 236.742188 " fill-opacity="1" fill-rule="nonzero"/></g><g clip-path="url(#7cf0113af5)"><path fill="#89e0ff" d="M 163.0625 117.996094 C 160.550781 117.304688 160.398438 115.6875 155.222656 115.929688 C 161.121094 112.265625 169.464844 112.566406 176.796875 115.703125 C 171.730469 115.394531 168.105469 119.386719 163.0625 117.996094 Z M 262.484375 201.429688 C 262.960938 169.160156 245.179688 142.28125 219.84375 129.742188 C 236.316406 133.285156 255.203125 144.683594 262.105469 149.648438 C 239.59375 121.265625 203.054688 103.011719 166.851562 104.320312 C 157.882812 104.640625 143.296875 107 140.660156 113.90625 L 142.726562 117.546875 C 139.90625 117.152344 126.28125 116.917969 120.320312 119.695312 C 108.316406 125.285156 111.671875 139.285156 120.070312 144.769531 C 114.601562 122.683594 213.726562 147.734375 226.296875 217.332031 C 232.472656 205.820312 230.628906 174.164062 225.097656 160.792969 C 253.375 174.472656 262.484375 201.429688 262.484375 201.429688 " fill-opacity="1" fill-rule="nonzero"/></g><g fill="#00ffff" fill-opacity="1"><g transform="translate(69.882106, 197.408257)"><g><path d="M 4 -43.09375 L 3 -32.1875 L -1.4375 -30.171875 L -2.9375 -13.984375 L 1.03125 -11.171875 L 0.03125 -0.265625 L -24.09375 -19.0625 L -23.15625 -29.078125 Z M -8.109375 -27.125 L -16.3125 -23.390625 L -8.953125 -18.203125 Z M -8.109375 -27.125 "/></g></g></g><g fill="#00ffff" fill-opacity="1"><g transform="translate(73.90163, 157.334918)"><g><path d="M 8.453125 -20.296875 L 4.296875 -10.3125 L -13.59375 -17.78125 L -17.46875 -8.46875 L -23.359375 -10.921875 L -11.4375 -39.53125 L -5.546875 -37.078125 L -9.4375 -27.765625 Z M 8.453125 -20.296875 "/></g></g></g><g fill="#00ffff" fill-opacity="1"><g transform="translate(85.199941, 129.182664)"><g><path d="M 20.15625 -26.0625 L 1.765625 -2.28125 L -18.609375 -18.046875 L -12 -26.59375 L 3.328125 -14.734375 L 15.109375 -29.96875 Z M 20.15625 -26.0625 "/></g></g></g><g fill="#00ffff" fill-opacity="1"><g transform="translate(102.959387, 104.218613)"><g><path d="M 35.53125 -24.71875 L 26.53125 -18.46875 L 22.140625 -20.546875 L 8.796875 -11.265625 L 9.203125 -6.40625 L 0.21875 -0.15625 L -0.953125 -30.703125 L 7.296875 -36.453125 Z M 15.5 -23.6875 L 7.359375 -27.546875 L 8.15625 -18.5625 Z M 15.5 -23.6875 "/></g></g></g><g fill="#00ffff" fill-opacity="1"><g transform="translate(135.478178, 80.801962)"><g><path d="M 39.703125 -10.6875 L 27.28125 -7.34375 L 8.6875 -20.40625 L 13.21875 -3.5625 L 2.78125 -0.75 L -3.921875 -25.625 L 8.484375 -28.96875 L 27.0625 -16 L 22.546875 -32.75 L 33 -35.5625 Z M 39.703125 -10.6875 "/></g></g></g><g fill="#00ffff" fill-opacity="1"><g transform="translate(174.846401, 70.537591)"><g><path d="M 21.96875 0.90625 L 11.15625 0.453125 L 11.953125 -18.921875 L 1.875 -19.328125 L 2.140625 -25.703125 L 33.109375 -24.4375 L 32.84375 -18.0625 L 22.765625 -18.46875 Z M 21.96875 0.90625 "/></g></g></g><g fill="#00ffff" fill-opacity="1"><g transform="translate(205.692294, 72.395711)"><g><path d="M 13.3125 3.21875 L 2.796875 0.671875 L 8.84375 -24.375 L 19.359375 -21.828125 Z M 13.3125 3.21875 "/></g></g></g><g fill="#00ffff" fill-opacity="1"><g transform="translate(219.980068, 74.723158)"><g><path d="M 15.203125 7.71875 C 12.035156 6.238281 9.644531 4.707031 8.03125 3.125 C 6.425781 1.539062 5.394531 -0.078125 4.9375 -1.734375 C 4.476562 -3.390625 4.4375 -5.078125 4.8125 -6.796875 L 15.21875 -1.9375 C 15.46875 -0.476562 16.4375 0.644531 18.125 1.4375 C 19.800781 2.21875 21.28125 2.234375 22.5625 1.484375 C 22.6875 1.398438 22.765625 1.316406 22.796875 1.234375 C 22.941406 0.941406 22.660156 0.539062 21.953125 0.03125 C 21.242188 -0.46875 20.132812 -1.113281 18.625 -1.90625 C 16.726562 -2.894531 14.789062 -4.054688 12.8125 -5.390625 C 8.382812 -8.347656 6.890625 -11.367188 8.328125 -14.453125 C 8.453125 -14.722656 8.597656 -15 8.765625 -15.28125 C 9.835938 -16.65625 11.15625 -17.703125 12.71875 -18.421875 C 14.289062 -19.148438 16.195312 -19.398438 18.4375 -19.171875 C 20.6875 -18.953125 23.394531 -18.101562 26.5625 -16.625 C 29.707031 -15.15625 32.085938 -13.628906 33.703125 -12.046875 C 35.316406 -10.472656 36.347656 -8.851562 36.796875 -7.1875 C 37.253906 -5.53125 37.300781 -3.847656 36.9375 -2.140625 L 26.515625 -7 C 26.265625 -8.457031 25.300781 -9.578125 23.625 -10.359375 C 21.9375 -11.148438 20.453125 -11.171875 19.171875 -10.421875 C 19.078125 -10.367188 19.015625 -10.300781 18.984375 -10.21875 C 18.859375 -9.957031 19.140625 -9.585938 19.828125 -9.109375 C 20.515625 -8.640625 21.554688 -8.019531 22.953125 -7.25 C 24.359375 -6.488281 25.835938 -5.628906 27.390625 -4.671875 C 28.941406 -3.710938 30.316406 -2.660156 31.515625 -1.515625 C 32.710938 -0.378906 33.492188 0.847656 33.859375 2.171875 C 34.148438 3.203125 34.035156 4.28125 33.515625 5.40625 C 33.367188 5.71875 33.191406 6.03125 32.984375 6.34375 C 31.898438 7.726562 30.578125 8.78125 29.015625 9.5 C 27.453125 10.21875 25.546875 10.46875 23.296875 10.25 C 21.046875 10.03125 18.347656 9.1875 15.203125 7.71875 Z M 15.203125 7.71875 "/></g></g></g><g fill="#00ffff" fill-opacity="1"><g transform="translate(248.676459, 89.097606)"><g/></g></g><g fill="#00ffff" fill-opacity="1"><g transform="translate(255.457112, 91.88969)"><g><path d="M 13.234375 14.296875 C 8.773438 9.753906 6.429688 5.492188 6.203125 1.515625 C 5.992188 -2.003906 7.316406 -5.164062 10.171875 -7.96875 C 13.035156 -10.78125 16.226562 -12.050781 19.75 -11.78125 C 23.71875 -11.46875 27.929688 -9.039062 32.390625 -4.5 C 35.015625 -1.832031 36.875 0.671875 37.96875 3.015625 C 39.070312 5.359375 39.566406 7.53125 39.453125 9.53125 C 39.335938 11.539062 38.753906 13.378906 37.703125 15.046875 L 29.734375 6.921875 C 30.367188 4.703125 29.613281 2.503906 27.46875 0.328125 C 25.644531 -1.523438 23.765625 -2.363281 21.828125 -2.1875 C 20.273438 -2.039062 18.914062 -1.394531 17.75 -0.25 C 16.582031 0.894531 15.914062 2.234375 15.75 3.765625 C 15.539062 5.710938 16.347656 7.613281 18.171875 9.46875 C 20.316406 11.644531 22.503906 12.429688 24.734375 11.828125 L 32.703125 19.953125 C 31.003906 20.984375 29.148438 21.535156 27.140625 21.609375 C 25.140625 21.691406 22.976562 21.160156 20.65625 20.015625 C 18.332031 18.867188 15.859375 16.960938 13.234375 14.296875 Z M 13.234375 14.296875 "/></g></g></g><g fill="#00ffff" fill-opacity="1"><g transform="translate(280.051182, 118.270458)"><g><path d="M 7.25 11.609375 L 1.53125 2.4375 L 23.375 -11.21875 L 29.09375 -2.046875 Z M 7.25 11.609375 "/></g></g></g><g fill="#00ffff" fill-opacity="1"><g transform="translate(288.581789, 129.998417)"><g><path d="M 7.796875 20.546875 L 3.96875 10.4375 L 22.09375 3.5625 L 18.5 -5.859375 L 24.46875 -8.125 L 35.46875 20.84375 L 29.5 23.109375 L 25.921875 13.671875 Z M 7.796875 20.546875 "/></g></g></g><g fill="#00ffff" fill-opacity="1"><g transform="translate(300.11905, 157.913854)"><g><path d="M 1.921875 25.0625 L 1.09375 14.28125 L 13.28125 13.34375 L 25.703125 -1.703125 L 26.625 10.25 L 19.53125 18.296875 L 27.765625 25.15625 L 28.6875 37.109375 L 14.109375 24.125 Z M 1.921875 25.0625 "/></g></g></g><g fill="#ff00ff" fill-opacity="1"><g transform="translate(71.261392, 197.408257)"><g><path d="M 4 -43.09375 L 3 -32.1875 L -1.4375 -30.171875 L -2.9375 -13.984375 L 1.03125 -11.171875 L 0.03125 -0.265625 L -24.09375 -19.0625 L -23.15625 -29.078125 Z M -8.109375 -27.125 L -16.3125 -23.390625 L -8.953125 -18.203125 Z M -8.109375 -27.125 "/></g></g></g><g fill="#ff00ff" fill-opacity="1"><g transform="translate(75.280917, 157.334918)"><g><path d="M 8.453125 -20.296875 L 4.296875 -10.3125 L -13.59375 -17.78125 L -17.46875 -8.46875 L -23.359375 -10.921875 L -11.4375 -39.53125 L -5.546875 -37.078125 L -9.4375 -27.765625 Z M 8.453125 -20.296875 "/></g></g></g><g fill="#ff00ff" fill-opacity="1"><g transform="translate(86.579228, 129.182664)"><g><path d="M 20.15625 -26.0625 L 1.765625 -2.28125 L -18.609375 -18.046875 L -12 -26.59375 L 3.328125 -14.734375 L 15.109375 -29.96875 Z M 20.15625 -26.0625 "/></g></g></g><g fill="#ff00ff" fill-opacity="1"><g transform="translate(104.338677, 104.218613)"><g><path d="M 35.53125 -24.71875 L 26.53125 -18.46875 L 22.140625 -20.546875 L 8.796875 -11.265625 L 9.203125 -6.40625 L 0.21875 -0.15625 L -0.953125 -30.703125 L 7.296875 -36.453125 Z M 15.5 -23.6875 L 7.359375 -27.546875 L 8.15625 -18.5625 Z M 15.5 -23.6875 "/></g></g></g><g fill="#ff00ff" fill-opacity="1"><g transform="translate(136.857474, 80.801962)"><g><path d="M 39.703125 -10.6875 L 27.28125 -7.34375 L 8.6875 -20.40625 L 13.21875 -3.5625 L 2.78125 -0.75 L -3.921875 -25.625 L 8.484375 -28.96875 L 27.0625 -16 L 22.546875 -32.75 L 33 -35.5625 Z M 39.703125 -10.6875 "/></g></g></g><g fill="#ff00ff" fill-opacity="1"><g transform="translate(176.225698, 70.537591)"><g><path d="M 21.96875 0.90625 L 11.15625 0.453125 L 11.953125 -18.921875 L 1.875 -19.328125 L 2.140625 -25.703125 L 33.109375 -24.4375 L 32.84375 -18.0625 L 22.765625 -18.46875 Z M 21.96875 0.90625 "/></g></g></g><g fill="#ff00ff" fill-opacity="1"><g transform="translate(207.071576, 72.395711)"><g><path d="M 13.3125 3.21875 L 2.796875 0.671875 L 8.84375 -24.375 L 19.359375 -21.828125 Z M 13.3125 3.21875 "/></g></g></g><g fill="#ff00ff" fill-opacity="1"><g transform="translate(221.359364, 74.723158)"><g><path d="M 15.203125 7.71875 C 12.035156 6.238281 9.644531 4.707031 8.03125 3.125 C 6.425781 1.539062 5.394531 -0.078125 4.9375 -1.734375 C 4.476562 -3.390625 4.4375 -5.078125 4.8125 -6.796875 L 15.21875 -1.9375 C 15.46875 -0.476562 16.4375 0.644531 18.125 1.4375 C 19.800781 2.21875 21.28125 2.234375 22.5625 1.484375 C 22.6875 1.398438 22.765625 1.316406 22.796875 1.234375 C 22.941406 0.941406 22.660156 0.539062 21.953125 0.03125 C 21.242188 -0.46875 20.132812 -1.113281 18.625 -1.90625 C 16.726562 -2.894531 14.789062 -4.054688 12.8125 -5.390625 C 8.382812 -8.347656 6.890625 -11.367188 8.328125 -14.453125 C 8.453125 -14.722656 8.597656 -15 8.765625 -15.28125 C 9.835938 -16.65625 11.15625 -17.703125 12.71875 -18.421875 C 14.289062 -19.148438 16.195312 -19.398438 18.4375 -19.171875 C 20.6875 -18.953125 23.394531 -18.101562 26.5625 -16.625 C 29.707031 -15.15625 32.085938 -13.628906 33.703125 -12.046875 C 35.316406 -10.472656 36.347656 -8.851562 36.796875 -7.1875 C 37.253906 -5.53125 37.300781 -3.847656 36.9375 -2.140625 L 26.515625 -7 C 26.265625 -8.457031 25.300781 -9.578125 23.625 -10.359375 C 21.9375 -11.148438 20.453125 -11.171875 19.171875 -10.421875 C 19.078125 -10.367188 19.015625 -10.300781 18.984375 -10.21875 C 18.859375 -9.957031 19.140625 -9.585938 19.828125 -9.109375 C 20.515625 -8.640625 21.554688 -8.019531 22.953125 -7.25 C 24.359375 -6.488281 25.835938 -5.628906 27.390625 -4.671875 C 28.941406 -3.710938 30.316406 -2.660156 31.515625 -1.515625 C 32.710938 -0.378906 33.492188 0.847656 33.859375 2.171875 C 34.148438 3.203125 34.035156 4.28125 33.515625 5.40625 C 33.367188 5.71875 33.191406 6.03125 32.984375 6.34375 C 31.898438 7.726562 30.578125 8.78125 29.015625 9.5 C 27.453125 10.21875 25.546875 10.46875 23.296875 10.25 C 21.046875 10.03125 18.347656 9.1875 15.203125 7.71875 Z M 15.203125 7.71875 "/></g></g></g><g fill="#ff00ff" fill-opacity="1"><g transform="translate(250.055756, 89.097606)"><g/></g></g><g fill="#ff00ff" fill-opacity="1"><g transform="translate(256.836408, 91.88969)"><g><path d="M 13.234375 14.296875 C 8.773438 9.753906 6.429688 5.492188 6.203125 1.515625 C 5.992188 -2.003906 7.316406 -5.164062 10.171875 -7.96875 C 13.035156 -10.78125 16.226562 -12.050781 19.75 -11.78125 C 23.71875 -11.46875 27.929688 -9.039062 32.390625 -4.5 C 35.015625 -1.832031 36.875 0.671875 37.96875 3.015625 C 39.070312 5.359375 39.566406 7.53125 39.453125 9.53125 C 39.335938 11.539062 38.753906 13.378906 37.703125 15.046875 L 29.734375 6.921875 C 30.367188 4.703125 29.613281 2.503906 27.46875 0.328125 C 25.644531 -1.523438 23.765625 -2.363281 21.828125 -2.1875 C 20.273438 -2.039062 18.914062 -1.394531 17.75 -0.25 C 16.582031 0.894531 15.914062 2.234375 15.75 3.765625 C 15.539062 5.710938 16.347656 7.613281 18.171875 9.46875 C 20.316406 11.644531 22.503906 12.429688 24.734375 11.828125 L 32.703125 19.953125 C 31.003906 20.984375 29.148438 21.535156 27.140625 21.609375 C 25.140625 21.691406 22.976562 21.160156 20.65625 20.015625 C 18.332031 18.867188 15.859375 16.960938 13.234375 14.296875 Z M 13.234375 14.296875 "/></g></g></g><g fill="#ff00ff" fill-opacity="1"><g transform="translate(281.430478, 118.270458)"><g><path d="M 7.25 11.609375 L 1.53125 2.4375 L 23.375 -11.21875 L 29.09375 -2.046875 Z M 7.25 11.609375 "/></g></g></g><g fill="#ff00ff" fill-opacity="1"><g transform="translate(289.961086, 129.998417)"><g><path d="M 7.796875 20.546875 L 3.96875 10.4375 L 22.09375 3.5625 L 18.5 -5.859375 L 24.46875 -8.125 L 35.46875 20.84375 L 29.5 23.109375 L 25.921875 13.671875 Z M 7.796875 20.546875 "/></g></g></g><g fill="#ff00ff" fill-opacity="1"><g transform="translate(301.498349, 157.913854)"><g><path d="M 1.921875 25.0625 L 1.09375 14.28125 L 13.28125 13.34375 L 25.703125 -1.703125 L 26.625 10.25 L 19.53125 18.296875 L 27.765625 25.15625 L 28.6875 37.109375 L 14.109375 24.125 Z M 1.921875 25.0625 "/></g></g></g><g fill="#edf126" fill-opacity="1"><g transform="translate(70.571747, 197.408257)"><g><path d="M 4 -43.09375 L 3 -32.1875 L -1.4375 -30.171875 L -2.9375 -13.984375 L 1.03125 -11.171875 L 0.03125 -0.265625 L -24.09375 -19.0625 L -23.15625 -29.078125 Z M -8.109375 -27.125 L -16.3125 -23.390625 L -8.953125 -18.203125 Z M -8.109375 -27.125 "/></g></g></g><g fill="#edf126" fill-opacity="1"><g transform="translate(74.591275, 157.334918)"><g><path d="M 8.453125 -20.296875 L 4.296875 -10.3125 L -13.59375 -17.78125 L -17.46875 -8.46875 L -23.359375 -10.921875 L -11.4375 -39.53125 L -5.546875 -37.078125 L -9.4375 -27.765625 Z M 8.453125 -20.296875 "/></g></g></g><g fill="#edf126" fill-opacity="1"><g transform="translate(85.889586, 129.182664)"><g><path d="M 20.15625 -26.0625 L 1.765625 -2.28125 L -18.609375 -18.046875 L -12 -26.59375 L 3.328125 -14.734375 L 15.109375 -29.96875 Z M 20.15625 -26.0625 "/></g></g></g><g fill="#edf126" fill-opacity="1"><g transform="translate(103.649037, 104.218613)"><g><path d="M 35.53125 -24.71875 L 26.53125 -18.46875 L 22.140625 -20.546875 L 8.796875 -11.265625 L 9.203125 -6.40625 L 0.21875 -0.15625 L -0.953125 -30.703125 L 7.296875 -36.453125 Z M 15.5 -23.6875 L 7.359375 -27.546875 L 8.15625 -18.5625 Z M 15.5 -23.6875 "/></g></g></g><g fill="#edf126" fill-opacity="1"><g transform="translate(136.167827, 80.801962)"><g><path d="M 39.703125 -10.6875 L 27.28125 -7.34375 L 8.6875 -20.40625 L 13.21875 -3.5625 L 2.78125 -0.75 L -3.921875 -25.625 L 8.484375 -28.96875 L 27.0625 -16 L 22.546875 -32.75 L 33 -35.5625 Z M 39.703125 -10.6875 "/></g></g></g><g fill="#edf126" fill-opacity="1"><g transform="translate(175.536051, 70.537591)"><g><path d="M 21.96875 0.90625 L 11.15625 0.453125 L 11.953125 -18.921875 L 1.875 -19.328125 L 2.140625 -25.703125 L 33.109375 -24.4375 L 32.84375 -18.0625 L 22.765625 -18.46875 Z M 21.96875 0.90625 "/></g></g></g><g fill="#edf126" fill-opacity="1"><g transform="translate(206.381941, 72.395711)"><g><path d="M 13.3125 3.21875 L 2.796875 0.671875 L 8.84375 -24.375 L 19.359375 -21.828125 Z M 13.3125 3.21875 "/></g></g></g><g fill="#edf126" fill-opacity="1"><g transform="translate(220.669717, 74.723158)"><g><path d="M 15.203125 7.71875 C 12.035156 6.238281 9.644531 4.707031 8.03125 3.125 C 6.425781 1.539062 5.394531 -0.078125 4.9375 -1.734375 C 4.476562 -3.390625 4.4375 -5.078125 4.8125 -6.796875 L 15.21875 -1.9375 C 15.46875 -0.476562 16.4375 0.644531 18.125 1.4375 C 19.800781 2.21875 21.28125 2.234375 22.5625 1.484375 C 22.6875 1.398438 22.765625 1.316406 22.796875 1.234375 C 22.941406 0.941406 22.660156 0.539062 21.953125 0.03125 C 21.242188 -0.46875 20.132812 -1.113281 18.625 -1.90625 C 16.726562 -2.894531 14.789062 -4.054688 12.8125 -5.390625 C 8.382812 -8.347656 6.890625 -11.367188 8.328125 -14.453125 C 8.453125 -14.722656 8.597656 -15 8.765625 -15.28125 C 9.835938 -16.65625 11.15625 -17.703125 12.71875 -18.421875 C 14.289062 -19.148438 16.195312 -19.398438 18.4375 -19.171875 C 20.6875 -18.953125 23.394531 -18.101562 26.5625 -16.625 C 29.707031 -15.15625 32.085938 -13.628906 33.703125 -12.046875 C 35.316406 -10.472656 36.347656 -8.851562 36.796875 -7.1875 C 37.253906 -5.53125 37.300781 -3.847656 36.9375 -2.140625 L 26.515625 -7 C 26.265625 -8.457031 25.300781 -9.578125 23.625 -10.359375 C 21.9375 -11.148438 20.453125 -11.171875 19.171875 -10.421875 C 19.078125 -10.367188 19.015625 -10.300781 18.984375 -10.21875 C 18.859375 -9.957031 19.140625 -9.585938 19.828125 -9.109375 C 20.515625 -8.640625 21.554688 -8.019531 22.953125 -7.25 C 24.359375 -6.488281 25.835938 -5.628906 27.390625 -4.671875 C 28.941406 -3.710938 30.316406 -2.660156 31.515625 -1.515625 C 32.710938 -0.378906 33.492188 0.847656 33.859375 2.171875 C 34.148438 3.203125 34.035156 4.28125 33.515625 5.40625 C 33.367188 5.71875 33.191406 6.03125 32.984375 6.34375 C 31.898438 7.726562 30.578125 8.78125 29.015625 9.5 C 27.453125 10.21875 25.546875 10.46875 23.296875 10.25 C 21.046875 10.03125 18.347656 9.1875 15.203125 7.71875 Z M 15.203125 7.71875 "/></g></g></g><g fill="#edf126" fill-opacity="1"><g transform="translate(249.366109, 89.097606)"><g/></g></g><g fill="#edf126" fill-opacity="1"><g transform="translate(256.146759, 91.88969)"><g><path d="M 13.234375 14.296875 C 8.773438 9.753906 6.429688 5.492188 6.203125 1.515625 C 5.992188 -2.003906 7.316406 -5.164062 10.171875 -7.96875 C 13.035156 -10.78125 16.226562 -12.050781 19.75 -11.78125 C 23.71875 -11.46875 27.929688 -9.039062 32.390625 -4.5 C 35.015625 -1.832031 36.875 0.671875 37.96875 3.015625 C 39.070312 5.359375 39.566406 7.53125 39.453125 9.53125 C 39.335938 11.539062 38.753906 13.378906 37.703125 15.046875 L 29.734375 6.921875 C 30.367188 4.703125 29.613281 2.503906 27.46875 0.328125 C 25.644531 -1.523438 23.765625 -2.363281 21.828125 -2.1875 C 20.273438 -2.039062 18.914062 -1.394531 17.75 -0.25 C 16.582031 0.894531 15.914062 2.234375 15.75 3.765625 C 15.539062 5.710938 16.347656 7.613281 18.171875 9.46875 C 20.316406 11.644531 22.503906 12.429688 24.734375 11.828125 L 32.703125 19.953125 C 31.003906 20.984375 29.148438 21.535156 27.140625 21.609375 C 25.140625 21.691406 22.976562 21.160156 20.65625 20.015625 C 18.332031 18.867188 15.859375 16.960938 13.234375 14.296875 Z M 13.234375 14.296875 "/></g></g></g><g fill="#edf126" fill-opacity="1"><g transform="translate(280.740831, 118.270458)"><g><path d="M 7.25 11.609375 L 1.53125 2.4375 L 23.375 -11.21875 L 29.09375 -2.046875 Z M 7.25 11.609375 "/></g></g></g><g fill="#edf126" fill-opacity="1"><g transform="translate(289.271436, 129.998417)"><g><path d="M 7.796875 20.546875 L 3.96875 10.4375 L 22.09375 3.5625 L 18.5 -5.859375 L 24.46875 -8.125 L 35.46875 20.84375 L 29.5 23.109375 L 25.921875 13.671875 Z M 7.796875 20.546875 "/></g></g></g><g fill="#edf126" fill-opacity="1"><g transform="translate(300.8087, 157.913854)"><g><path d="M 1.921875 25.0625 L 1.09375 14.28125 L 13.28125 13.34375 L 25.703125 -1.703125 L 26.625 10.25 L 19.53125 18.296875 L 27.765625 25.15625 L 28.6875 37.109375 L 14.109375 24.125 Z M 1.921875 25.0625 "/></g></g></g><g fill="#ff00ff" fill-opacity="1"><g transform="translate(55.922457, 259.139719)"><g><path d="M 7.140625 0.203125 C 4.804688 0.203125 3.085938 -0.273438 1.984375 -1.234375 C 1.015625 -2.078125 0.53125 -3.234375 0.53125 -4.703125 C 0.53125 -6.171875 1.015625 -7.332031 1.984375 -8.1875 C 3.085938 -9.144531 4.804688 -9.625 7.140625 -9.625 C 8.503906 -9.625 9.632812 -9.46875 10.53125 -9.15625 C 11.425781 -8.84375 12.117188 -8.410156 12.609375 -7.859375 C 13.109375 -7.316406 13.4375 -6.695312 13.59375 -6 L 9.4375 -6 C 9.019531 -6.726562 8.253906 -7.09375 7.140625 -7.09375 C 6.179688 -7.09375 5.476562 -6.816406 5.03125 -6.265625 C 4.664062 -5.828125 4.484375 -5.304688 4.484375 -4.703125 C 4.484375 -4.109375 4.664062 -3.59375 5.03125 -3.15625 C 5.476562 -2.601562 6.179688 -2.328125 7.140625 -2.328125 C 8.253906 -2.328125 9.019531 -2.691406 9.4375 -3.421875 L 13.59375 -3.421875 C 13.4375 -2.722656 13.109375 -2.097656 12.609375 -1.546875 C 12.117188 -1.003906 11.425781 -0.578125 10.53125 -0.265625 C 9.632812 0.046875 8.503906 0.203125 7.140625 0.203125 Z M 7.140625 0.203125 "/></g></g></g><g fill="#ff00ff" fill-opacity="1"><g transform="translate(70.032472, 259.139719)"><g><path d="M 13.9375 0 L 9.984375 0 L 9.984375 -3.8125 L 5.015625 -3.8125 L 5.015625 0 L 1.046875 0 L 1.046875 -9.4375 L 5.015625 -9.4375 L 5.015625 -5.625 L 9.984375 -5.625 L 9.984375 -9.4375 L 13.9375 -9.4375 Z M 13.9375 0 "/></g></g></g><g fill="#ff00ff" fill-opacity="1"><g transform="translate(85.009582, 259.139719)"><g><path d="M 15.84375 0 L 11.84375 0 L 10.953125 -1.546875 L 5 -1.546875 L 4.109375 0 L 0.09375 0 L 6.140625 -9.4375 L 9.8125 -9.4375 Z M 9.609375 -3.875 L 7.984375 -6.734375 L 6.328125 -3.875 Z M 9.609375 -3.875 "/></g></g></g><g fill="#ff00ff" fill-opacity="1"><g transform="translate(100.939185, 259.139719)"><g><path d="M 19 0 L 15.03125 0 L 15.03125 -6.015625 L 11.5 0 L 8.546875 0 L 5.015625 -6.015625 L 5.015625 0 L 1.046875 0 L 1.046875 -9.4375 L 5.75 -9.4375 L 10.015625 -2.703125 L 14.28125 -9.4375 L 19 -9.4375 Z M 19 0 "/></g></g></g><g fill="#ff00ff" fill-opacity="1"><g transform="translate(120.961217, 259.139719)"><g><path d="M 7.8125 0 L 1.046875 0 L 1.046875 -9.4375 L 7.96875 -9.4375 C 9.195312 -9.4375 10.207031 -9.378906 11 -9.265625 C 11.789062 -9.148438 12.398438 -8.972656 12.828125 -8.734375 C 13.253906 -8.492188 13.546875 -8.191406 13.703125 -7.828125 C 13.859375 -7.460938 13.9375 -7.019531 13.9375 -6.5 C 13.925781 -6.101562 13.816406 -5.769531 13.609375 -5.5 C 13.398438 -5.238281 13.15625 -5.039062 12.875 -4.90625 C 12.59375 -4.78125 12.347656 -4.71875 12.140625 -4.71875 C 12.347656 -4.71875 12.585938 -4.675781 12.859375 -4.59375 C 13.140625 -4.507812 13.410156 -4.390625 13.671875 -4.234375 C 13.929688 -4.085938 14.144531 -3.90625 14.3125 -3.6875 C 14.488281 -3.46875 14.578125 -3.21875 14.578125 -2.9375 C 14.578125 -2.5625 14.535156 -2.21875 14.453125 -1.90625 C 14.367188 -1.601562 14.195312 -1.332031 13.9375 -1.09375 C 13.675781 -0.863281 13.296875 -0.664062 12.796875 -0.5 C 12.304688 -0.332031 11.65625 -0.207031 10.84375 -0.125 C 10.03125 -0.0390625 9.019531 0 7.8125 0 Z M 7.59375 -5.53125 C 8.175781 -5.53125 8.625 -5.554688 8.9375 -5.609375 C 9.257812 -5.660156 9.476562 -5.742188 9.59375 -5.859375 C 9.71875 -5.984375 9.78125 -6.132812 9.78125 -6.3125 C 9.78125 -6.5 9.71875 -6.648438 9.59375 -6.765625 C 9.476562 -6.878906 9.257812 -6.960938 8.9375 -7.015625 C 8.625 -7.078125 8.175781 -7.109375 7.59375 -7.109375 L 5.015625 -7.109375 L 5.015625 -5.53125 Z M 7.59375 -2.328125 C 8.1875 -2.328125 8.664062 -2.34375 9.03125 -2.375 C 9.40625 -2.40625 9.675781 -2.472656 9.84375 -2.578125 C 10.019531 -2.691406 10.109375 -2.875 10.109375 -3.125 C 10.109375 -3.363281 10.019531 -3.539062 9.84375 -3.65625 C 9.675781 -3.769531 9.40625 -3.835938 9.03125 -3.859375 C 8.664062 -3.890625 8.1875 -3.90625 7.59375 -3.90625 L 5.015625 -3.90625 L 5.015625 -2.328125 Z M 7.59375 -2.328125 "/></g></g></g><g fill="#ff00ff" fill-opacity="1"><g transform="translate(136.049999, 259.139719)"><g><path d="M 12.421875 0 L 1.046875 0 L 1.046875 -9.4375 L 11.890625 -9.4375 L 11.890625 -7.109375 L 5.015625 -7.109375 L 5.015625 -5.625 L 10.828125 -5.625 L 10.828125 -3.8125 L 5.015625 -3.8125 L 5.015625 -2.328125 L 12.421875 -2.328125 Z M 12.421875 0 "/></g></g></g><g fill="#ff00ff" fill-opacity="1"><g transform="translate(148.977611, 259.139719)"><g><path d="M 13.9375 0 L 10.1875 0 C 10.019531 -0.238281 9.898438 -0.539062 9.828125 -0.90625 C 9.765625 -1.1875 9.671875 -1.460938 9.546875 -1.734375 C 9.429688 -2.015625 9.222656 -2.242188 8.921875 -2.421875 C 8.617188 -2.609375 8.171875 -2.707031 7.578125 -2.71875 L 5.015625 -2.71875 L 5.015625 0 L 1.046875 0 L 1.046875 -9.4375 L 7.484375 -9.4375 C 9.023438 -9.4375 10.269531 -9.320312 11.21875 -9.09375 C 12.164062 -8.863281 12.851562 -8.5 13.28125 -8 C 13.71875 -7.507812 13.9375 -6.867188 13.9375 -6.078125 C 13.9375 -5.410156 13.785156 -4.851562 13.484375 -4.40625 C 13.179688 -3.957031 12.707031 -3.597656 12.0625 -3.328125 C 12.6875 -3.078125 13.09375 -2.769531 13.28125 -2.40625 C 13.46875 -2.039062 13.582031 -1.640625 13.625 -1.203125 C 13.664062 -0.816406 13.769531 -0.414062 13.9375 0 Z M 5.015625 -5.046875 L 7.28125 -5.0625 C 7.90625 -5.0625 8.398438 -5.085938 8.765625 -5.140625 C 9.128906 -5.203125 9.394531 -5.28125 9.5625 -5.375 C 9.738281 -5.476562 9.851562 -5.585938 9.90625 -5.703125 C 9.957031 -5.828125 9.984375 -5.953125 9.984375 -6.078125 C 9.984375 -6.203125 9.957031 -6.328125 9.90625 -6.453125 C 9.851562 -6.578125 9.738281 -6.6875 9.5625 -6.78125 C 9.394531 -6.882812 9.128906 -6.960938 8.765625 -7.015625 C 8.398438 -7.078125 7.90625 -7.109375 7.28125 -7.109375 L 5.015625 -7.109375 Z M 5.015625 -5.046875 "/></g></g></g><g fill="#ff00ff" fill-opacity="1"><g transform="translate(163.42264, 259.139719)"><g/></g></g><g fill="#ff00ff" fill-opacity="1"><g transform="translate(166.759645, 259.139719)"><g><path d="M 7.140625 0.203125 C 4.804688 0.203125 3.085938 -0.273438 1.984375 -1.234375 C 1.015625 -2.085938 0.53125 -3.25 0.53125 -4.71875 C 0.53125 -6.175781 1.015625 -7.332031 1.984375 -8.1875 C 3.085938 -9.144531 4.804688 -9.625 7.140625 -9.625 C 9.472656 -9.625 11.1875 -9.144531 12.28125 -8.1875 C 13.257812 -7.332031 13.75 -6.175781 13.75 -4.71875 C 13.75 -3.25 13.257812 -2.085938 12.28125 -1.234375 C 11.1875 -0.273438 9.472656 0.203125 7.140625 0.203125 Z M 7.140625 -2.328125 C 8.085938 -2.328125 8.785156 -2.601562 9.234375 -3.15625 C 9.597656 -3.59375 9.78125 -4.113281 9.78125 -4.71875 C 9.78125 -5.3125 9.597656 -5.832031 9.234375 -6.28125 C 8.785156 -6.832031 8.085938 -7.109375 7.140625 -7.109375 C 6.179688 -7.109375 5.476562 -6.832031 5.03125 -6.28125 C 4.664062 -5.832031 4.484375 -5.3125 4.484375 -4.71875 C 4.484375 -4.113281 4.664062 -3.59375 5.03125 -3.15625 C 5.476562 -2.601562 6.179688 -2.328125 7.140625 -2.328125 Z M 7.140625 -2.328125 "/></g></g></g><g fill="#ff00ff" fill-opacity="1"><g transform="translate(181.014176, 259.139719)"><g><path d="M 5.015625 0 L 1.046875 0 L 1.046875 -9.4375 L 11.890625 -9.4375 L 11.890625 -7.109375 L 5.015625 -7.109375 L 5.015625 -5.625 L 10.828125 -5.625 L 10.828125 -3.8125 L 5.015625 -3.8125 Z M 5.015625 0 "/></g></g></g><g fill="#ff00ff" fill-opacity="1"><g transform="translate(193.422843, 259.139719)"><g/></g></g><g fill="#ff00ff" fill-opacity="1"><g transform="translate(196.759849, 259.139719)"><g><path d="M 7.140625 0.203125 C 4.804688 0.203125 3.085938 -0.273438 1.984375 -1.234375 C 1.015625 -2.078125 0.53125 -3.234375 0.53125 -4.703125 C 0.53125 -6.171875 1.015625 -7.332031 1.984375 -8.1875 C 3.085938 -9.144531 4.804688 -9.625 7.140625 -9.625 C 8.503906 -9.625 9.632812 -9.46875 10.53125 -9.15625 C 11.425781 -8.84375 12.117188 -8.410156 12.609375 -7.859375 C 13.109375 -7.316406 13.4375 -6.695312 13.59375 -6 L 9.4375 -6 C 9.019531 -6.726562 8.253906 -7.09375 7.140625 -7.09375 C 6.179688 -7.09375 5.476562 -6.816406 5.03125 -6.265625 C 4.664062 -5.828125 4.484375 -5.304688 4.484375 -4.703125 C 4.484375 -4.109375 4.664062 -3.59375 5.03125 -3.15625 C 5.476562 -2.601562 6.179688 -2.328125 7.140625 -2.328125 C 8.253906 -2.328125 9.019531 -2.691406 9.4375 -3.421875 L 13.59375 -3.421875 C 13.4375 -2.722656 13.109375 -2.097656 12.609375 -1.546875 C 12.117188 -1.003906 11.425781 -0.578125 10.53125 -0.265625 C 9.632812 0.046875 8.503906 0.203125 7.140625 0.203125 Z M 7.140625 0.203125 "/></g></g></g><g fill="#ff00ff" fill-opacity="1"><g transform="translate(210.869863, 259.139719)"><g><path d="M 7.140625 0.203125 C 4.804688 0.203125 3.085938 -0.273438 1.984375 -1.234375 C 1.015625 -2.085938 0.53125 -3.25 0.53125 -4.71875 C 0.53125 -6.175781 1.015625 -7.332031 1.984375 -8.1875 C 3.085938 -9.144531 4.804688 -9.625 7.140625 -9.625 C 9.472656 -9.625 11.1875 -9.144531 12.28125 -8.1875 C 13.257812 -7.332031 13.75 -6.175781 13.75 -4.71875 C 13.75 -3.25 13.257812 -2.085938 12.28125 -1.234375 C 11.1875 -0.273438 9.472656 0.203125 7.140625 0.203125 Z M 7.140625 -2.328125 C 8.085938 -2.328125 8.785156 -2.601562 9.234375 -3.15625 C 9.597656 -3.59375 9.78125 -4.113281 9.78125 -4.71875 C 9.78125 -5.3125 9.597656 -5.832031 9.234375 -6.28125 C 8.785156 -6.832031 8.085938 -7.109375 7.140625 -7.109375 C 6.179688 -7.109375 5.476562 -6.832031 5.03125 -6.28125 C 4.664062 -5.832031 4.484375 -5.3125 4.484375 -4.71875 C 4.484375 -4.113281 4.664062 -3.59375 5.03125 -3.15625 C 5.476562 -2.601562 6.179688 -2.328125 7.140625 -2.328125 Z M 7.140625 -2.328125 "/></g></g></g><g fill="#ff00ff" fill-opacity="1"><g transform="translate(225.124394, 259.139719)"><g><path d="M 19 0 L 15.03125 0 L 15.03125 -6.015625 L 11.5 0 L 8.546875 0 L 5.015625 -6.015625 L 5.015625 0 L 1.046875 0 L 1.046875 -9.4375 L 5.75 -9.4375 L 10.015625 -2.703125 L 14.28125 -9.4375 L 19 -9.4375 Z M 19 0 "/></g></g></g><g fill="#ff00ff" fill-opacity="1"><g transform="translate(245.146426, 259.139719)"><g><path d="M 19 0 L 15.03125 0 L 15.03125 -6.015625 L 11.5 0 L 8.546875 0 L 5.015625 -6.015625 L 5.015625 0 L 1.046875 0 L 1.046875 -9.4375 L 5.75 -9.4375 L 10.015625 -2.703125 L 14.28125 -9.4375 L 19 -9.4375 Z M 19 0 "/></g></g></g><g fill="#ff00ff" fill-opacity="1"><g transform="translate(265.168459, 259.139719)"><g><path d="M 12.421875 0 L 1.046875 0 L 1.046875 -9.4375 L 11.890625 -9.4375 L 11.890625 -7.109375 L 5.015625 -7.109375 L 5.015625 -5.625 L 10.828125 -5.625 L 10.828125 -3.8125 L 5.015625 -3.8125 L 5.015625 -2.328125 L 12.421875 -2.328125 Z M 12.421875 0 "/></g></g></g><g fill="#ff00ff" fill-opacity="1"><g transform="translate(278.09607, 259.139719)"><g><path d="M 13.9375 0 L 10.1875 0 C 10.019531 -0.238281 9.898438 -0.539062 9.828125 -0.90625 C 9.765625 -1.1875 9.671875 -1.460938 9.546875 -1.734375 C 9.429688 -2.015625 9.222656 -2.242188 8.921875 -2.421875 C 8.617188 -2.609375 8.171875 -2.707031 7.578125 -2.71875 L 5.015625 -2.71875 L 5.015625 0 L 1.046875 0 L 1.046875 -9.4375 L 7.484375 -9.4375 C 9.023438 -9.4375 10.269531 -9.320312 11.21875 -9.09375 C 12.164062 -8.863281 12.851562 -8.5 13.28125 -8 C 13.71875 -7.507812 13.9375 -6.867188 13.9375 -6.078125 C 13.9375 -5.410156 13.785156 -4.851562 13.484375 -4.40625 C 13.179688 -3.957031 12.707031 -3.597656 12.0625 -3.328125 C 12.6875 -3.078125 13.09375 -2.769531 13.28125 -2.40625 C 13.46875 -2.039062 13.582031 -1.640625 13.625 -1.203125 C 13.664062 -0.816406 13.769531 -0.414062 13.9375 0 Z M 5.015625 -5.046875 L 7.28125 -5.0625 C 7.90625 -5.0625 8.398438 -5.085938 8.765625 -5.140625 C 9.128906 -5.203125 9.394531 -5.28125 9.5625 -5.375 C 9.738281 -5.476562 9.851562 -5.585938 9.90625 -5.703125 C 9.957031 -5.828125 9.984375 -5.953125 9.984375 -6.078125 C 9.984375 -6.203125 9.957031 -6.328125 9.90625 -6.453125 C 9.851562 -6.578125 9.738281 -6.6875 9.5625 -6.78125 C 9.394531 -6.882812 9.128906 -6.960938 8.765625 -7.015625 C 8.398438 -7.078125 7.90625 -7.109375 7.28125 -7.109375 L 5.015625 -7.109375 Z M 5.015625 -5.046875 "/></g></g></g><g fill="#ff00ff" fill-opacity="1"><g transform="translate(292.541099, 259.139719)"><g><path d="M 7.140625 0.203125 C 4.804688 0.203125 3.085938 -0.273438 1.984375 -1.234375 C 1.015625 -2.078125 0.53125 -3.234375 0.53125 -4.703125 C 0.53125 -6.171875 1.015625 -7.332031 1.984375 -8.1875 C 3.085938 -9.144531 4.804688 -9.625 7.140625 -9.625 C 8.503906 -9.625 9.632812 -9.46875 10.53125 -9.15625 C 11.425781 -8.84375 12.117188 -8.410156 12.609375 -7.859375 C 13.109375 -7.316406 13.4375 -6.695312 13.59375 -6 L 9.4375 -6 C 9.019531 -6.726562 8.253906 -7.09375 7.140625 -7.09375 C 6.179688 -7.09375 5.476562 -6.816406 5.03125 -6.265625 C 4.664062 -5.828125 4.484375 -5.304688 4.484375 -4.703125 C 4.484375 -4.109375 4.664062 -3.59375 5.03125 -3.15625 C 5.476562 -2.601562 6.179688 -2.328125 7.140625 -2.328125 C 8.253906 -2.328125 9.019531 -2.691406 9.4375 -3.421875 L 13.59375 -3.421875 C 13.4375 -2.722656 13.109375 -2.097656 12.609375 -1.546875 C 12.117188 -1.003906 11.425781 -0.578125 10.53125 -0.265625 C 9.632812 0.046875 8.503906 0.203125 7.140625 0.203125 Z M 7.140625 0.203125 "/></g></g></g><g fill="#ff00ff" fill-opacity="1"><g transform="translate(306.651114, 259.139719)"><g><path d="M 12.421875 0 L 1.046875 0 L 1.046875 -9.4375 L 11.890625 -9.4375 L 11.890625 -7.109375 L 5.015625 -7.109375 L 5.015625 -5.625 L 10.828125 -5.625 L 10.828125 -3.8125 L 5.015625 -3.8125 L 5.015625 -2.328125 L 12.421875 -2.328125 Z M 12.421875 0 "/></g></g></g><g fill="#00ffff" fill-opacity="1"><g transform="translate(55.417387, 259.139719)"><g><path d="M 7.140625 0.203125 C 4.804688 0.203125 3.085938 -0.273438 1.984375 -1.234375 C 1.015625 -2.078125 0.53125 -3.234375 0.53125 -4.703125 C 0.53125 -6.171875 1.015625 -7.332031 1.984375 -8.1875 C 3.085938 -9.144531 4.804688 -9.625 7.140625 -9.625 C 8.503906 -9.625 9.632812 -9.46875 10.53125 -9.15625 C 11.425781 -8.84375 12.117188 -8.410156 12.609375 -7.859375 C 13.109375 -7.316406 13.4375 -6.695312 13.59375 -6 L 9.4375 -6 C 9.019531 -6.726562 8.253906 -7.09375 7.140625 -7.09375 C 6.179688 -7.09375 5.476562 -6.816406 5.03125 -6.265625 C 4.664062 -5.828125 4.484375 -5.304688 4.484375 -4.703125 C 4.484375 -4.109375 4.664062 -3.59375 5.03125 -3.15625 C 5.476562 -2.601562 6.179688 -2.328125 7.140625 -2.328125 C 8.253906 -2.328125 9.019531 -2.691406 9.4375 -3.421875 L 13.59375 -3.421875 C 13.4375 -2.722656 13.109375 -2.097656 12.609375 -1.546875 C 12.117188 -1.003906 11.425781 -0.578125 10.53125 -0.265625 C 9.632812 0.046875 8.503906 0.203125 7.140625 0.203125 Z M 7.140625 0.203125 "/></g></g></g><g fill="#00ffff" fill-opacity="1"><g transform="translate(69.527401, 259.139719)"><g><path d="M 13.9375 0 L 9.984375 0 L 9.984375 -3.8125 L 5.015625 -3.8125 L 5.015625 0 L 1.046875 0 L 1.046875 -9.4375 L 5.015625 -9.4375 L 5.015625 -5.625 L 9.984375 -5.625 L 9.984375 -9.4375 L 13.9375 -9.4375 Z M 13.9375 0 "/></g></g></g><g fill="#00ffff" fill-opacity="1"><g transform="translate(84.504512, 259.139719)"><g><path d="M 15.84375 0 L 11.84375 0 L 10.953125 -1.546875 L 5 -1.546875 L 4.109375 0 L 0.09375 0 L 6.140625 -9.4375 L 9.8125 -9.4375 Z M 9.609375 -3.875 L 7.984375 -6.734375 L 6.328125 -3.875 Z M 9.609375 -3.875 "/></g></g></g><g fill="#00ffff" fill-opacity="1"><g transform="translate(100.434114, 259.139719)"><g><path d="M 19 0 L 15.03125 0 L 15.03125 -6.015625 L 11.5 0 L 8.546875 0 L 5.015625 -6.015625 L 5.015625 0 L 1.046875 0 L 1.046875 -9.4375 L 5.75 -9.4375 L 10.015625 -2.703125 L 14.28125 -9.4375 L 19 -9.4375 Z M 19 0 "/></g></g></g><g fill="#00ffff" fill-opacity="1"><g transform="translate(120.456147, 259.139719)"><g><path d="M 7.8125 0 L 1.046875 0 L 1.046875 -9.4375 L 7.96875 -9.4375 C 9.195312 -9.4375 10.207031 -9.378906 11 -9.265625 C 11.789062 -9.148438 12.398438 -8.972656 12.828125 -8.734375 C 13.253906 -8.492188 13.546875 -8.191406 13.703125 -7.828125 C 13.859375 -7.460938 13.9375 -7.019531 13.9375 -6.5 C 13.925781 -6.101562 13.816406 -5.769531 13.609375 -5.5 C 13.398438 -5.238281 13.15625 -5.039062 12.875 -4.90625 C 12.59375 -4.78125 12.347656 -4.71875 12.140625 -4.71875 C 12.347656 -4.71875 12.585938 -4.675781 12.859375 -4.59375 C 13.140625 -4.507812 13.410156 -4.390625 13.671875 -4.234375 C 13.929688 -4.085938 14.144531 -3.90625 14.3125 -3.6875 C 14.488281 -3.46875 14.578125 -3.21875 14.578125 -2.9375 C 14.578125 -2.5625 14.535156 -2.21875 14.453125 -1.90625 C 14.367188 -1.601562 14.195312 -1.332031 13.9375 -1.09375 C 13.675781 -0.863281 13.296875 -0.664062 12.796875 -0.5 C 12.304688 -0.332031 11.65625 -0.207031 10.84375 -0.125 C 10.03125 -0.0390625 9.019531 0 7.8125 0 Z M 7.59375 -5.53125 C 8.175781 -5.53125 8.625 -5.554688 8.9375 -5.609375 C 9.257812 -5.660156 9.476562 -5.742188 9.59375 -5.859375 C 9.71875 -5.984375 9.78125 -6.132812 9.78125 -6.3125 C 9.78125 -6.5 9.71875 -6.648438 9.59375 -6.765625 C 9.476562 -6.878906 9.257812 -6.960938 8.9375 -7.015625 C 8.625 -7.078125 8.175781 -7.109375 7.59375 -7.109375 L 5.015625 -7.109375 L 5.015625 -5.53125 Z M 7.59375 -2.328125 C 8.1875 -2.328125 8.664062 -2.34375 9.03125 -2.375 C 9.40625 -2.40625 9.675781 -2.472656 9.84375 -2.578125 C 10.019531 -2.691406 10.109375 -2.875 10.109375 -3.125 C 10.109375 -3.363281 10.019531 -3.539062 9.84375 -3.65625 C 9.675781 -3.769531 9.40625 -3.835938 9.03125 -3.859375 C 8.664062 -3.890625 8.1875 -3.90625 7.59375 -3.90625 L 5.015625 -3.90625 L 5.015625 -2.328125 Z M 7.59375 -2.328125 "/></g></g></g><g fill="#00ffff" fill-opacity="1"><g transform="translate(135.544929, 259.139719)"><g><path d="M 12.421875 0 L 1.046875 0 L 1.046875 -9.4375 L 11.890625 -9.4375 L 11.890625 -7.109375 L 5.015625 -7.109375 L 5.015625 -5.625 L 10.828125 -5.625 L 10.828125 -3.8125 L 5.015625 -3.8125 L 5.015625 -2.328125 L 12.421875 -2.328125 Z M 12.421875 0 "/></g></g></g><g fill="#00ffff" fill-opacity="1"><g transform="translate(148.47254, 259.139719)"><g><path d="M 13.9375 0 L 10.1875 0 C 10.019531 -0.238281 9.898438 -0.539062 9.828125 -0.90625 C 9.765625 -1.1875 9.671875 -1.460938 9.546875 -1.734375 C 9.429688 -2.015625 9.222656 -2.242188 8.921875 -2.421875 C 8.617188 -2.609375 8.171875 -2.707031 7.578125 -2.71875 L 5.015625 -2.71875 L 5.015625 0 L 1.046875 0 L 1.046875 -9.4375 L 7.484375 -9.4375 C 9.023438 -9.4375 10.269531 -9.320312 11.21875 -9.09375 C 12.164062 -8.863281 12.851562 -8.5 13.28125 -8 C 13.71875 -7.507812 13.9375 -6.867188 13.9375 -6.078125 C 13.9375 -5.410156 13.785156 -4.851562 13.484375 -4.40625 C 13.179688 -3.957031 12.707031 -3.597656 12.0625 -3.328125 C 12.6875 -3.078125 13.09375 -2.769531 13.28125 -2.40625 C 13.46875 -2.039062 13.582031 -1.640625 13.625 -1.203125 C 13.664062 -0.816406 13.769531 -0.414062 13.9375 0 Z M 5.015625 -5.046875 L 7.28125 -5.0625 C 7.90625 -5.0625 8.398438 -5.085938 8.765625 -5.140625 C 9.128906 -5.203125 9.394531 -5.28125 9.5625 -5.375 C 9.738281 -5.476562 9.851562 -5.585938 9.90625 -5.703125 C 9.957031 -5.828125 9.984375 -5.953125 9.984375 -6.078125 C 9.984375 -6.203125 9.957031 -6.328125 9.90625 -6.453125 C 9.851562 -6.578125 9.738281 -6.6875 9.5625 -6.78125 C 9.394531 -6.882812 9.128906 -6.960938 8.765625 -7.015625 C 8.398438 -7.078125 7.90625 -7.109375 7.28125 -7.109375 L 5.015625 -7.109375 Z M 5.015625 -5.046875 "/></g></g></g><g fill="#00ffff" fill-opacity="1"><g transform="translate(162.917569, 259.139719)"><g/></g></g><g fill="#00ffff" fill-opacity="1"><g transform="translate(166.254575, 259.139719)"><g><path d="M 7.140625 0.203125 C 4.804688 0.203125 3.085938 -0.273438 1.984375 -1.234375 C 1.015625 -2.085938 0.53125 -3.25 0.53125 -4.71875 C 0.53125 -6.175781 1.015625 -7.332031 1.984375 -8.1875 C 3.085938 -9.144531 4.804688 -9.625 7.140625 -9.625 C 9.472656 -9.625 11.1875 -9.144531 12.28125 -8.1875 C 13.257812 -7.332031 13.75 -6.175781 13.75 -4.71875 C 13.75 -3.25 13.257812 -2.085938 12.28125 -1.234375 C 11.1875 -0.273438 9.472656 0.203125 7.140625 0.203125 Z M 7.140625 -2.328125 C 8.085938 -2.328125 8.785156 -2.601562 9.234375 -3.15625 C 9.597656 -3.59375 9.78125 -4.113281 9.78125 -4.71875 C 9.78125 -5.3125 9.597656 -5.832031 9.234375 -6.28125 C 8.785156 -6.832031 8.085938 -7.109375 7.140625 -7.109375 C 6.179688 -7.109375 5.476562 -6.832031 5.03125 -6.28125 C 4.664062 -5.832031 4.484375 -5.3125 4.484375 -4.71875 C 4.484375 -4.113281 4.664062 -3.59375 5.03125 -3.15625 C 5.476562 -2.601562 6.179688 -2.328125 7.140625 -2.328125 Z M 7.140625 -2.328125 "/></g></g></g><g fill="#00ffff" fill-opacity="1"><g transform="translate(180.509105, 259.139719)"><g><path d="M 5.015625 0 L 1.046875 0 L 1.046875 -9.4375 L 11.890625 -9.4375 L 11.890625 -7.109375 L 5.015625 -7.109375 L 5.015625 -5.625 L 10.828125 -5.625 L 10.828125 -3.8125 L 5.015625 -3.8125 Z M 5.015625 0 "/></g></g></g><g fill="#00ffff" fill-opacity="1"><g transform="translate(192.917773, 259.139719)"><g/></g></g><g fill="#00ffff" fill-opacity="1"><g transform="translate(196.254778, 259.139719)"><g><path d="M 7.140625 0.203125 C 4.804688 0.203125 3.085938 -0.273438 1.984375 -1.234375 C 1.015625 -2.078125 0.53125 -3.234375 0.53125 -4.703125 C 0.53125 -6.171875 1.015625 -7.332031 1.984375 -8.1875 C 3.085938 -9.144531 4.804688 -9.625 7.140625 -9.625 C 8.503906 -9.625 9.632812 -9.46875 10.53125 -9.15625 C 11.425781 -8.84375 12.117188 -8.410156 12.609375 -7.859375 C 13.109375 -7.316406 13.4375 -6.695312 13.59375 -6 L 9.4375 -6 C 9.019531 -6.726562 8.253906 -7.09375 7.140625 -7.09375 C 6.179688 -7.09375 5.476562 -6.816406 5.03125 -6.265625 C 4.664062 -5.828125 4.484375 -5.304688 4.484375 -4.703125 C 4.484375 -4.109375 4.664062 -3.59375 5.03125 -3.15625 C 5.476562 -2.601562 6.179688 -2.328125 7.140625 -2.328125 C 8.253906 -2.328125 9.019531 -2.691406 9.4375 -3.421875 L 13.59375 -3.421875 C 13.4375 -2.722656 13.109375 -2.097656 12.609375 -1.546875 C 12.117188 -1.003906 11.425781 -0.578125 10.53125 -0.265625 C 9.632812 0.046875 8.503906 0.203125 7.140625 0.203125 Z M 7.140625 0.203125 "/></g></g></g><g fill="#00ffff" fill-opacity="1"><g transform="translate(210.364793, 259.139719)"><g><path d="M 7.140625 0.203125 C 4.804688 0.203125 3.085938 -0.273438 1.984375 -1.234375 C 1.015625 -2.085938 0.53125 -3.25 0.53125 -4.71875 C 0.53125 -6.175781 1.015625 -7.332031 1.984375 -8.1875 C 3.085938 -9.144531 4.804688 -9.625 7.140625 -9.625 C 9.472656 -9.625 11.1875 -9.144531 12.28125 -8.1875 C 13.257812 -7.332031 13.75 -6.175781 13.75 -4.71875 C 13.75 -3.25 13.257812 -2.085938 12.28125 -1.234375 C 11.1875 -0.273438 9.472656 0.203125 7.140625 0.203125 Z M 7.140625 -2.328125 C 8.085938 -2.328125 8.785156 -2.601562 9.234375 -3.15625 C 9.597656 -3.59375 9.78125 -4.113281 9.78125 -4.71875 C 9.78125 -5.3125 9.597656 -5.832031 9.234375 -6.28125 C 8.785156 -6.832031 8.085938 -7.109375 7.140625 -7.109375 C 6.179688 -7.109375 5.476562 -6.832031 5.03125 -6.28125 C 4.664062 -5.832031 4.484375 -5.3125 4.484375 -4.71875 C 4.484375 -4.113281 4.664062 -3.59375 5.03125 -3.15625 C 5.476562 -2.601562 6.179688 -2.328125 7.140625 -2.328125 Z M 7.140625 -2.328125 "/></g></g></g><g fill="#00ffff" fill-opacity="1"><g transform="translate(224.619323, 259.139719)"><g><path d="M 19 0 L 15.03125 0 L 15.03125 -6.015625 L 11.5 0 L 8.546875 0 L 5.015625 -6.015625 L 5.015625 0 L 1.046875 0 L 1.046875 -9.4375 L 5.75 -9.4375 L 10.015625 -2.703125 L 14.28125 -9.4375 L 19 -9.4375 Z M 19 0 "/></g></g></g><g fill="#00ffff" fill-opacity="1"><g transform="translate(244.641356, 259.139719)"><g><path d="M 19 0 L 15.03125 0 L 15.03125 -6.015625 L 11.5 0 L 8.546875 0 L 5.015625 -6.015625 L 5.015625 0 L 1.046875 0 L 1.046875 -9.4375 L 5.75 -9.4375 L 10.015625 -2.703125 L 14.28125 -9.4375 L 19 -9.4375 Z M 19 0 "/></g></g></g><g fill="#00ffff" fill-opacity="1"><g transform="translate(264.663388, 259.139719)"><g><path d="M 12.421875 0 L 1.046875 0 L 1.046875 -9.4375 L 11.890625 -9.4375 L 11.890625 -7.109375 L 5.015625 -7.109375 L 5.015625 -5.625 L 10.828125 -5.625 L 10.828125 -3.8125 L 5.015625 -3.8125 L 5.015625 -2.328125 L 12.421875 -2.328125 Z M 12.421875 0 "/></g></g></g><g fill="#00ffff" fill-opacity="1"><g transform="translate(277.591, 259.139719)"><g><path d="M 13.9375 0 L 10.1875 0 C 10.019531 -0.238281 9.898438 -0.539062 9.828125 -0.90625 C 9.765625 -1.1875 9.671875 -1.460938 9.546875 -1.734375 C 9.429688 -2.015625 9.222656 -2.242188 8.921875 -2.421875 C 8.617188 -2.609375 8.171875 -2.707031 7.578125 -2.71875 L 5.015625 -2.71875 L 5.015625 0 L 1.046875 0 L 1.046875 -9.4375 L 7.484375 -9.4375 C 9.023438 -9.4375 10.269531 -9.320312 11.21875 -9.09375 C 12.164062 -8.863281 12.851562 -8.5 13.28125 -8 C 13.71875 -7.507812 13.9375 -6.867188 13.9375 -6.078125 C 13.9375 -5.410156 13.785156 -4.851562 13.484375 -4.40625 C 13.179688 -3.957031 12.707031 -3.597656 12.0625 -3.328125 C 12.6875 -3.078125 13.09375 -2.769531 13.28125 -2.40625 C 13.46875 -2.039062 13.582031 -1.640625 13.625 -1.203125 C 13.664062 -0.816406 13.769531 -0.414062 13.9375 0 Z M 5.015625 -5.046875 L 7.28125 -5.0625 C 7.90625 -5.0625 8.398438 -5.085938 8.765625 -5.140625 C 9.128906 -5.203125 9.394531 -5.28125 9.5625 -5.375 C 9.738281 -5.476562 9.851562 -5.585938 9.90625 -5.703125 C 9.957031 -5.828125 9.984375 -5.953125 9.984375 -6.078125 C 9.984375 -6.203125 9.957031 -6.328125 9.90625 -6.453125 C 9.851562 -6.578125 9.738281 -6.6875 9.5625 -6.78125 C 9.394531 -6.882812 9.128906 -6.960938 8.765625 -7.015625 C 8.398438 -7.078125 7.90625 -7.109375 7.28125 -7.109375 L 5.015625 -7.109375 Z M 5.015625 -5.046875 "/></g></g></g><g fill="#00ffff" fill-opacity="1"><g transform="translate(292.036029, 259.139719)"><g><path d="M 7.140625 0.203125 C 4.804688 0.203125 3.085938 -0.273438 1.984375 -1.234375 C 1.015625 -2.078125 0.53125 -3.234375 0.53125 -4.703125 C 0.53125 -6.171875 1.015625 -7.332031 1.984375 -8.1875 C 3.085938 -9.144531 4.804688 -9.625 7.140625 -9.625 C 8.503906 -9.625 9.632812 -9.46875 10.53125 -9.15625 C 11.425781 -8.84375 12.117188 -8.410156 12.609375 -7.859375 C 13.109375 -7.316406 13.4375 -6.695312 13.59375 -6 L 9.4375 -6 C 9.019531 -6.726562 8.253906 -7.09375 7.140625 -7.09375 C 6.179688 -7.09375 5.476562 -6.816406 5.03125 -6.265625 C 4.664062 -5.828125 4.484375 -5.304688 4.484375 -4.703125 C 4.484375 -4.109375 4.664062 -3.59375 5.03125 -3.15625 C 5.476562 -2.601562 6.179688 -2.328125 7.140625 -2.328125 C 8.253906 -2.328125 9.019531 -2.691406 9.4375 -3.421875 L 13.59375 -3.421875 C 13.4375 -2.722656 13.109375 -2.097656 12.609375 -1.546875 C 12.117188 -1.003906 11.425781 -0.578125 10.53125 -0.265625 C 9.632812 0.046875 8.503906 0.203125 7.140625 0.203125 Z M 7.140625 0.203125 "/></g></g></g><g fill="#00ffff" fill-opacity="1"><g transform="translate(306.146043, 259.139719)"><g><path d="M 12.421875 0 L 1.046875 0 L 1.046875 -9.4375 L 11.890625 -9.4375 L 11.890625 -7.109375 L 5.015625 -7.109375 L 5.015625 -5.625 L 10.828125 -5.625 L 10.828125 -3.8125 L 5.015625 -3.8125 L 5.015625 -2.328125 L 12.421875 -2.328125 Z M 12.421875 0 "/></g></g></g><g fill="#edf126" fill-opacity="1"><g transform="translate(55.669922, 259.139719)"><g><path d="M 7.140625 0.203125 C 4.804688 0.203125 3.085938 -0.273438 1.984375 -1.234375 C 1.015625 -2.078125 0.53125 -3.234375 0.53125 -4.703125 C 0.53125 -6.171875 1.015625 -7.332031 1.984375 -8.1875 C 3.085938 -9.144531 4.804688 -9.625 7.140625 -9.625 C 8.503906 -9.625 9.632812 -9.46875 10.53125 -9.15625 C 11.425781 -8.84375 12.117188 -8.410156 12.609375 -7.859375 C 13.109375 -7.316406 13.4375 -6.695312 13.59375 -6 L 9.4375 -6 C 9.019531 -6.726562 8.253906 -7.09375 7.140625 -7.09375 C 6.179688 -7.09375 5.476562 -6.816406 5.03125 -6.265625 C 4.664062 -5.828125 4.484375 -5.304688 4.484375 -4.703125 C 4.484375 -4.109375 4.664062 -3.59375 5.03125 -3.15625 C 5.476562 -2.601562 6.179688 -2.328125 7.140625 -2.328125 C 8.253906 -2.328125 9.019531 -2.691406 9.4375 -3.421875 L 13.59375 -3.421875 C 13.4375 -2.722656 13.109375 -2.097656 12.609375 -1.546875 C 12.117188 -1.003906 11.425781 -0.578125 10.53125 -0.265625 C 9.632812 0.046875 8.503906 0.203125 7.140625 0.203125 Z M 7.140625 0.203125 "/></g></g></g><g fill="#edf126" fill-opacity="1"><g transform="translate(69.779937, 259.139719)"><g><path d="M 13.9375 0 L 9.984375 0 L 9.984375 -3.8125 L 5.015625 -3.8125 L 5.015625 0 L 1.046875 0 L 1.046875 -9.4375 L 5.015625 -9.4375 L 5.015625 -5.625 L 9.984375 -5.625 L 9.984375 -9.4375 L 13.9375 -9.4375 Z M 13.9375 0 "/></g></g></g><g fill="#edf126" fill-opacity="1"><g transform="translate(84.757047, 259.139719)"><g><path d="M 15.84375 0 L 11.84375 0 L 10.953125 -1.546875 L 5 -1.546875 L 4.109375 0 L 0.09375 0 L 6.140625 -9.4375 L 9.8125 -9.4375 Z M 9.609375 -3.875 L 7.984375 -6.734375 L 6.328125 -3.875 Z M 9.609375 -3.875 "/></g></g></g><g fill="#edf126" fill-opacity="1"><g transform="translate(100.686649, 259.139719)"><g><path d="M 19 0 L 15.03125 0 L 15.03125 -6.015625 L 11.5 0 L 8.546875 0 L 5.015625 -6.015625 L 5.015625 0 L 1.046875 0 L 1.046875 -9.4375 L 5.75 -9.4375 L 10.015625 -2.703125 L 14.28125 -9.4375 L 19 -9.4375 Z M 19 0 "/></g></g></g><g fill="#edf126" fill-opacity="1"><g transform="translate(120.708682, 259.139719)"><g><path d="M 7.8125 0 L 1.046875 0 L 1.046875 -9.4375 L 7.96875 -9.4375 C 9.195312 -9.4375 10.207031 -9.378906 11 -9.265625 C 11.789062 -9.148438 12.398438 -8.972656 12.828125 -8.734375 C 13.253906 -8.492188 13.546875 -8.191406 13.703125 -7.828125 C 13.859375 -7.460938 13.9375 -7.019531 13.9375 -6.5 C 13.925781 -6.101562 13.816406 -5.769531 13.609375 -5.5 C 13.398438 -5.238281 13.15625 -5.039062 12.875 -4.90625 C 12.59375 -4.78125 12.347656 -4.71875 12.140625 -4.71875 C 12.347656 -4.71875 12.585938 -4.675781 12.859375 -4.59375 C 13.140625 -4.507812 13.410156 -4.390625 13.671875 -4.234375 C 13.929688 -4.085938 14.144531 -3.90625 14.3125 -3.6875 C 14.488281 -3.46875 14.578125 -3.21875 14.578125 -2.9375 C 14.578125 -2.5625 14.535156 -2.21875 14.453125 -1.90625 C 14.367188 -1.601562 14.195312 -1.332031 13.9375 -1.09375 C 13.675781 -0.863281 13.296875 -0.664062 12.796875 -0.5 C 12.304688 -0.332031 11.65625 -0.207031 10.84375 -0.125 C 10.03125 -0.0390625 9.019531 0 7.8125 0 Z M 7.59375 -5.53125 C 8.175781 -5.53125 8.625 -5.554688 8.9375 -5.609375 C 9.257812 -5.660156 9.476562 -5.742188 9.59375 -5.859375 C 9.71875 -5.984375 9.78125 -6.132812 9.78125 -6.3125 C 9.78125 -6.5 9.71875 -6.648438 9.59375 -6.765625 C 9.476562 -6.878906 9.257812 -6.960938 8.9375 -7.015625 C 8.625 -7.078125 8.175781 -7.109375 7.59375 -7.109375 L 5.015625 -7.109375 L 5.015625 -5.53125 Z M 7.59375 -2.328125 C 8.1875 -2.328125 8.664062 -2.34375 9.03125 -2.375 C 9.40625 -2.40625 9.675781 -2.472656 9.84375 -2.578125 C 10.019531 -2.691406 10.109375 -2.875 10.109375 -3.125 C 10.109375 -3.363281 10.019531 -3.539062 9.84375 -3.65625 C 9.675781 -3.769531 9.40625 -3.835938 9.03125 -3.859375 C 8.664062 -3.890625 8.1875 -3.90625 7.59375 -3.90625 L 5.015625 -3.90625 L 5.015625 -2.328125 Z M 7.59375 -2.328125 "/></g></g></g><g fill="#edf126" fill-opacity="1"><g transform="translate(135.797464, 259.139719)"><g><path d="M 12.421875 0 L 1.046875 0 L 1.046875 -9.4375 L 11.890625 -9.4375 L 11.890625 -7.109375 L 5.015625 -7.109375 L 5.015625 -5.625 L 10.828125 -5.625 L 10.828125 -3.8125 L 5.015625 -3.8125 L 5.015625 -2.328125 L 12.421875 -2.328125 Z M 12.421875 0 "/></g></g></g><g fill="#edf126" fill-opacity="1"><g transform="translate(148.725075, 259.139719)"><g><path d="M 13.9375 0 L 10.1875 0 C 10.019531 -0.238281 9.898438 -0.539062 9.828125 -0.90625 C 9.765625 -1.1875 9.671875 -1.460938 9.546875 -1.734375 C 9.429688 -2.015625 9.222656 -2.242188 8.921875 -2.421875 C 8.617188 -2.609375 8.171875 -2.707031 7.578125 -2.71875 L 5.015625 -2.71875 L 5.015625 0 L 1.046875 0 L 1.046875 -9.4375 L 7.484375 -9.4375 C 9.023438 -9.4375 10.269531 -9.320312 11.21875 -9.09375 C 12.164062 -8.863281 12.851562 -8.5 13.28125 -8 C 13.71875 -7.507812 13.9375 -6.867188 13.9375 -6.078125 C 13.9375 -5.410156 13.785156 -4.851562 13.484375 -4.40625 C 13.179688 -3.957031 12.707031 -3.597656 12.0625 -3.328125 C 12.6875 -3.078125 13.09375 -2.769531 13.28125 -2.40625 C 13.46875 -2.039062 13.582031 -1.640625 13.625 -1.203125 C 13.664062 -0.816406 13.769531 -0.414062 13.9375 0 Z M 5.015625 -5.046875 L 7.28125 -5.0625 C 7.90625 -5.0625 8.398438 -5.085938 8.765625 -5.140625 C 9.128906 -5.203125 9.394531 -5.28125 9.5625 -5.375 C 9.738281 -5.476562 9.851562 -5.585938 9.90625 -5.703125 C 9.957031 -5.828125 9.984375 -5.953125 9.984375 -6.078125 C 9.984375 -6.203125 9.957031 -6.328125 9.90625 -6.453125 C 9.851562 -6.578125 9.738281 -6.6875 9.5625 -6.78125 C 9.394531 -6.882812 9.128906 -6.960938 8.765625 -7.015625 C 8.398438 -7.078125 7.90625 -7.109375 7.28125 -7.109375 L 5.015625 -7.109375 Z M 5.015625 -5.046875 "/></g></g></g><g fill="#edf126" fill-opacity="1"><g transform="translate(163.170104, 259.139719)"><g/></g></g><g fill="#edf126" fill-opacity="1"><g transform="translate(166.50711, 259.139719)"><g><path d="M 7.140625 0.203125 C 4.804688 0.203125 3.085938 -0.273438 1.984375 -1.234375 C 1.015625 -2.085938 0.53125 -3.25 0.53125 -4.71875 C 0.53125 -6.175781 1.015625 -7.332031 1.984375 -8.1875 C 3.085938 -9.144531 4.804688 -9.625 7.140625 -9.625 C 9.472656 -9.625 11.1875 -9.144531 12.28125 -8.1875 C 13.257812 -7.332031 13.75 -6.175781 13.75 -4.71875 C 13.75 -3.25 13.257812 -2.085938 12.28125 -1.234375 C 11.1875 -0.273438 9.472656 0.203125 7.140625 0.203125 Z M 7.140625 -2.328125 C 8.085938 -2.328125 8.785156 -2.601562 9.234375 -3.15625 C 9.597656 -3.59375 9.78125 -4.113281 9.78125 -4.71875 C 9.78125 -5.3125 9.597656 -5.832031 9.234375 -6.28125 C 8.785156 -6.832031 8.085938 -7.109375 7.140625 -7.109375 C 6.179688 -7.109375 5.476562 -6.832031 5.03125 -6.28125 C 4.664062 -5.832031 4.484375 -5.3125 4.484375 -4.71875 C 4.484375 -4.113281 4.664062 -3.59375 5.03125 -3.15625 C 5.476562 -2.601562 6.179688 -2.328125 7.140625 -2.328125 Z M 7.140625 -2.328125 "/></g></g></g><g fill="#edf126" fill-opacity="1"><g transform="translate(180.76164, 259.139719)"><g><path d="M 5.015625 0 L 1.046875 0 L 1.046875 -9.4375 L 11.890625 -9.4375 L 11.890625 -7.109375 L 5.015625 -7.109375 L 5.015625 -5.625 L 10.828125 -5.625 L 10.828125 -3.8125 L 5.015625 -3.8125 Z M 5.015625 0 "/></g></g></g><g fill="#edf126" fill-opacity="1"><g transform="translate(193.170308, 259.139719)"><g/></g></g><g fill="#edf126" fill-opacity="1"><g transform="translate(196.507314, 259.139719)"><g><path d="M 7.140625 0.203125 C 4.804688 0.203125 3.085938 -0.273438 1.984375 -1.234375 C 1.015625 -2.078125 0.53125 -3.234375 0.53125 -4.703125 C 0.53125 -6.171875 1.015625 -7.332031 1.984375 -8.1875 C 3.085938 -9.144531 4.804688 -9.625 7.140625 -9.625 C 8.503906 -9.625 9.632812 -9.46875 10.53125 -9.15625 C 11.425781 -8.84375 12.117188 -8.410156 12.609375 -7.859375 C 13.109375 -7.316406 13.4375 -6.695312 13.59375 -6 L 9.4375 -6 C 9.019531 -6.726562 8.253906 -7.09375 7.140625 -7.09375 C 6.179688 -7.09375 5.476562 -6.816406 5.03125 -6.265625 C 4.664062 -5.828125 4.484375 -5.304688 4.484375 -4.703125 C 4.484375 -4.109375 4.664062 -3.59375 5.03125 -3.15625 C 5.476562 -2.601562 6.179688 -2.328125 7.140625 -2.328125 C 8.253906 -2.328125 9.019531 -2.691406 9.4375 -3.421875 L 13.59375 -3.421875 C 13.4375 -2.722656 13.109375 -2.097656 12.609375 -1.546875 C 12.117188 -1.003906 11.425781 -0.578125 10.53125 -0.265625 C 9.632812 0.046875 8.503906 0.203125 7.140625 0.203125 Z M 7.140625 0.203125 "/></g></g></g><g fill="#edf126" fill-opacity="1"><g transform="translate(210.617328, 259.139719)"><g><path d="M 7.140625 0.203125 C 4.804688 0.203125 3.085938 -0.273438 1.984375 -1.234375 C 1.015625 -2.085938 0.53125 -3.25 0.53125 -4.71875 C 0.53125 -6.175781 1.015625 -7.332031 1.984375 -8.1875 C 3.085938 -9.144531 4.804688 -9.625 7.140625 -9.625 C 9.472656 -9.625 11.1875 -9.144531 12.28125 -8.1875 C 13.257812 -7.332031 13.75 -6.175781 13.75 -4.71875 C 13.75 -3.25 13.257812 -2.085938 12.28125 -1.234375 C 11.1875 -0.273438 9.472656 0.203125 7.140625 0.203125 Z M 7.140625 -2.328125 C 8.085938 -2.328125 8.785156 -2.601562 9.234375 -3.15625 C 9.597656 -3.59375 9.78125 -4.113281 9.78125 -4.71875 C 9.78125 -5.3125 9.597656 -5.832031 9.234375 -6.28125 C 8.785156 -6.832031 8.085938 -7.109375 7.140625 -7.109375 C 6.179688 -7.109375 5.476562 -6.832031 5.03125 -6.28125 C 4.664062 -5.832031 4.484375 -5.3125 4.484375 -4.71875 C 4.484375 -4.113281 4.664062 -3.59375 5.03125 -3.15625 C 5.476562 -2.601562 6.179688 -2.328125 7.140625 -2.328125 Z M 7.140625 -2.328125 "/></g></g></g><g fill="#edf126" fill-opacity="1"><g transform="translate(224.871859, 259.139719)"><g><path d="M 19 0 L 15.03125 0 L 15.03125 -6.015625 L 11.5 0 L 8.546875 0 L 5.015625 -6.015625 L 5.015625 0 L 1.046875 0 L 1.046875 -9.4375 L 5.75 -9.4375 L 10.015625 -2.703125 L 14.28125 -9.4375 L 19 -9.4375 Z M 19 0 "/></g></g></g><g fill="#edf126" fill-opacity="1"><g transform="translate(244.893891, 259.139719)"><g><path d="M 19 0 L 15.03125 0 L 15.03125 -6.015625 L 11.5 0 L 8.546875 0 L 5.015625 -6.015625 L 5.015625 0 L 1.046875 0 L 1.046875 -9.4375 L 5.75 -9.4375 L 10.015625 -2.703125 L 14.28125 -9.4375 L 19 -9.4375 Z M 19 0 "/></g></g></g><g fill="#edf126" fill-opacity="1"><g transform="translate(264.915924, 259.139719)"><g><path d="M 12.421875 0 L 1.046875 0 L 1.046875 -9.4375 L 11.890625 -9.4375 L 11.890625 -7.109375 L 5.015625 -7.109375 L 5.015625 -5.625 L 10.828125 -5.625 L 10.828125 -3.8125 L 5.015625 -3.8125 L 5.015625 -2.328125 L 12.421875 -2.328125 Z M 12.421875 0 "/></g></g></g><g fill="#edf126" fill-opacity="1"><g transform="translate(277.843535, 259.139719)"><g><path d="M 13.9375 0 L 10.1875 0 C 10.019531 -0.238281 9.898438 -0.539062 9.828125 -0.90625 C 9.765625 -1.1875 9.671875 -1.460938 9.546875 -1.734375 C 9.429688 -2.015625 9.222656 -2.242188 8.921875 -2.421875 C 8.617188 -2.609375 8.171875 -2.707031 7.578125 -2.71875 L 5.015625 -2.71875 L 5.015625 0 L 1.046875 0 L 1.046875 -9.4375 L 7.484375 -9.4375 C 9.023438 -9.4375 10.269531 -9.320312 11.21875 -9.09375 C 12.164062 -8.863281 12.851562 -8.5 13.28125 -8 C 13.71875 -7.507812 13.9375 -6.867188 13.9375 -6.078125 C 13.9375 -5.410156 13.785156 -4.851562 13.484375 -4.40625 C 13.179688 -3.957031 12.707031 -3.597656 12.0625 -3.328125 C 12.6875 -3.078125 13.09375 -2.769531 13.28125 -2.40625 C 13.46875 -2.039062 13.582031 -1.640625 13.625 -1.203125 C 13.664062 -0.816406 13.769531 -0.414062 13.9375 0 Z M 5.015625 -5.046875 L 7.28125 -5.0625 C 7.90625 -5.0625 8.398438 -5.085938 8.765625 -5.140625 C 9.128906 -5.203125 9.394531 -5.28125 9.5625 -5.375 C 9.738281 -5.476562 9.851562 -5.585938 9.90625 -5.703125 C 9.957031 -5.828125 9.984375 -5.953125 9.984375 -6.078125 C 9.984375 -6.203125 9.957031 -6.328125 9.90625 -6.453125 C 9.851562 -6.578125 9.738281 -6.6875 9.5625 -6.78125 C 9.394531 -6.882812 9.128906 -6.960938 8.765625 -7.015625 C 8.398438 -7.078125 7.90625 -7.109375 7.28125 -7.109375 L 5.015625 -7.109375 Z M 5.015625 -5.046875 "/></g></g></g><g fill="#edf126" fill-opacity="1"><g transform="translate(292.288564, 259.139719)"><g><path d="M 7.140625 0.203125 C 4.804688 0.203125 3.085938 -0.273438 1.984375 -1.234375 C 1.015625 -2.078125 0.53125 -3.234375 0.53125 -4.703125 C 0.53125 -6.171875 1.015625 -7.332031 1.984375 -8.1875 C 3.085938 -9.144531 4.804688 -9.625 7.140625 -9.625 C 8.503906 -9.625 9.632812 -9.46875 10.53125 -9.15625 C 11.425781 -8.84375 12.117188 -8.410156 12.609375 -7.859375 C 13.109375 -7.316406 13.4375 -6.695312 13.59375 -6 L 9.4375 -6 C 9.019531 -6.726562 8.253906 -7.09375 7.140625 -7.09375 C 6.179688 -7.09375 5.476562 -6.816406 5.03125 -6.265625 C 4.664062 -5.828125 4.484375 -5.304688 4.484375 -4.703125 C 4.484375 -4.109375 4.664062 -3.59375 5.03125 -3.15625 C 5.476562 -2.601562 6.179688 -2.328125 7.140625 -2.328125 C 8.253906 -2.328125 9.019531 -2.691406 9.4375 -3.421875 L 13.59375 -3.421875 C 13.4375 -2.722656 13.109375 -2.097656 12.609375 -1.546875 C 12.117188 -1.003906 11.425781 -0.578125 10.53125 -0.265625 C 9.632812 0.046875 8.503906 0.203125 7.140625 0.203125 Z M 7.140625 0.203125 "/></g></g></g><g fill="#edf126" fill-opacity="1"><g transform="translate(306.398578, 259.139719)"><g><path d="M 12.421875 0 L 1.046875 0 L 1.046875 -9.4375 L 11.890625 -9.4375 L 11.890625 -7.109375 L 5.015625 -7.109375 L 5.015625 -5.625 L 10.828125 -5.625 L 10.828125 -3.8125 L 5.015625 -3.8125 L 5.015625 -2.328125 L 12.421875 -2.328125 Z M 12.421875 0 "/></g></g></g></svg>